<?xml version="1.0" encoding="UTF-8" standalone="no"?>
<!DOCTYPE svg PUBLIC "-//W3C//DTD SVG 1.1//EN"
 "http://www.w3.org/Graphics/SVG/1.1/DTD/svg11.dtd">
<!-- Generated by graphviz version 2.40.1 (0)
 -->
<!-- Title: G Pages: 1 -->
<svg width="2130pt" height="1836pt"
 viewBox="0.00 0.00 2130.00 1836.00" xmlns="http://www.w3.org/2000/svg" xmlns:xlink="http://www.w3.org/1999/xlink">
<g id="graph0" class="graph" transform="scale(1 1) rotate(0) translate(4 1832)">
<title>G</title>
<polygon fill="#ffffff" stroke="transparent" points="-4,4 -4,-1832 2126,-1832 2126,4 -4,4"/>
<g id="clust1" class="cluster">
<title>cluster0</title>
<polygon fill="none" stroke="transparent" points="8,-8 8,-1784 960,-1784 960,-8 8,-8"/>
</g>
<g id="clust2" class="cluster">
<title>cluster1</title>
<polygon fill="none" stroke="transparent" points="1162,-104 1162,-1784 2114,-1784 2114,-104 1162,-104"/>
</g>
<!-- label0 -->
<g id="node1" class="node">
<title>label0</title>
<text text-anchor="middle" x="484" y="-1806.3" font-family="Roboto" font-size="14.00" fill="#000000">Czech Republic &#45; KohoVolit.eu</text>
</g>
<!-- cz_koho_1 -->
<g id="node2" class="node">
<title>cz_koho_1</title>
<polygon fill="none" stroke="#000000" points="952,-1776 16,-1776 16,-1740 952,-1740 952,-1776"/>
<text text-anchor="end" x="944" y="-1754.3" font-family="Roboto" font-size="14.00" fill="#000000">Should the Czech Republic adopt Euro as soon as possible?</text>
</g>
<!-- label0&#45;&gt;cz_koho_1 -->
<!-- cz_koho_2 -->
<g id="node3" class="node">
<title>cz_koho_2</title>
<polygon fill="none" stroke="#000000" points="952,-1732 16,-1732 16,-1696 952,-1696 952,-1732"/>
<text text-anchor="end" x="944" y="-1710.3" font-family="Roboto" font-size="14.00" fill="#000000">Should the EU member states be seriously afflicted [not mentioned with what], if they break the EU rules on budget deficit?</text>
</g>
<!-- cz_koho_1&#45;&gt;cz_koho_2 -->
<!-- de_5 -->
<g id="node47" class="node">
<title>de_5</title>
<polygon fill="none" stroke="#000000" points="2106,-1600 1170,-1600 1170,-1564 2106,-1564 2106,-1600"/>
<text text-anchor="start" x="1178" y="-1578.3" font-family="Roboto" font-size="14.00" fill="#000000">Should Germany revert from Euro to a national currency?</text>
</g>
<!-- cz_koho_1&#45;&gt;de_5 -->
<g id="edge79" class="edge">
<title>cz_koho_1:e&#45;&gt;de_5:w</title>
<path fill="none" stroke="#000000" d="M952,-1758C952,-1758 1170,-1582 1170,-1582"/>
</g>
<!-- cz_koho_3 -->
<g id="node4" class="node">
<title>cz_koho_3</title>
<polygon fill="none" stroke="#000000" points="952,-1688 16,-1688 16,-1652 952,-1652 952,-1688"/>
<text text-anchor="end" x="944" y="-1666.3" font-family="Roboto" font-size="14.00" fill="#000000">Should it be allowed to grow genetically modified plants in the whole EU?</text>
</g>
<!-- cz_koho_2&#45;&gt;cz_koho_3 -->
<!-- de_25 -->
<g id="node67" class="node">
<title>de_25</title>
<polygon fill="none" stroke="#000000" points="2106,-720 1170,-720 1170,-684 2106,-684 2106,-720"/>
<text text-anchor="start" x="1178" y="-698.3" font-family="Roboto" font-size="14.00" fill="#000000">Should those EU member states that violate the EU rules for excess of the national debt be punished?</text>
</g>
<!-- cz_koho_2&#45;&gt;de_25 -->
<g id="edge80" class="edge">
<title>cz_koho_2:e&#45;&gt;de_25:w</title>
<path fill="none" stroke="#000000" d="M952,-1714C952,-1714 1170,-702 1170,-702"/>
</g>
<!-- cz_koho_4 -->
<g id="node5" class="node">
<title>cz_koho_4</title>
<polygon fill="none" stroke="#000000" points="952,-1644 16,-1644 16,-1608 952,-1608 952,-1644"/>
<text text-anchor="end" x="944" y="-1622.3" font-family="Roboto" font-size="14.00" fill="#000000">Should the EU advance substantial reduction of CO2 emissions?</text>
</g>
<!-- cz_koho_3&#45;&gt;cz_koho_4 -->
<!-- de_8 -->
<g id="node50" class="node">
<title>de_8</title>
<polygon fill="none" stroke="#000000" points="2106,-1468 1170,-1468 1170,-1432 2106,-1432 2106,-1468"/>
<text text-anchor="start" x="1178" y="-1446.3" font-family="Roboto" font-size="14.00" fill="#000000">Should the cultivation of genetically modified plants be allowed in the EU?</text>
</g>
<!-- cz_koho_3&#45;&gt;de_8 -->
<g id="edge81" class="edge">
<title>cz_koho_3:e&#45;&gt;de_8:w</title>
<path fill="none" stroke="#000000" d="M952,-1670C952,-1670 1170,-1450 1170,-1450"/>
</g>
<!-- cz_koho_5 -->
<g id="node6" class="node">
<title>cz_koho_5</title>
<polygon fill="none" stroke="#000000" points="952,-1600 16,-1600 16,-1564 952,-1564 952,-1600"/>
<text text-anchor="end" x="944" y="-1578.3" font-family="Roboto" font-size="14.00" fill="#000000">Should financial aid to the economically weaker regions of the EU be reduced?</text>
</g>
<!-- cz_koho_4&#45;&gt;cz_koho_5 -->
<!-- de_2 -->
<g id="node44" class="node">
<title>de_2</title>
<polygon fill="none" stroke="#000000" points="2106,-1732 1170,-1732 1170,-1696 2106,-1696 2106,-1732"/>
<text text-anchor="start" x="1178" y="-1710.3" font-family="Roboto" font-size="14.00" fill="#000000">Should the EU set higher goals for the reduction of carbon emissions?</text>
</g>
<!-- cz_koho_4&#45;&gt;de_2 -->
<g id="edge82" class="edge">
<title>cz_koho_4:e&#45;&gt;de_2:w</title>
<path fill="none" stroke="#000000" d="M952,-1626C952,-1626 1170,-1714 1170,-1714"/>
</g>
<!-- cz_koho_6 -->
<g id="node7" class="node">
<title>cz_koho_6</title>
<polygon fill="none" stroke="#000000" points="952,-1556 16,-1556 16,-1520 952,-1520 952,-1556"/>
<text text-anchor="end" x="944" y="-1534.3" font-family="Roboto" font-size="14.00" fill="#000000">Should a tax on financial transactions be implemented?</text>
</g>
<!-- cz_koho_5&#45;&gt;cz_koho_6 -->
<!-- de_20 -->
<g id="node62" class="node">
<title>de_20</title>
<polygon fill="none" stroke="#000000" points="2106,-940 1170,-940 1170,-904 2106,-904 2106,-940"/>
<text text-anchor="start" x="1178" y="-918.3" font-family="Roboto" font-size="14.00" fill="#000000">Should financial support for economically weaker regions of the EU be reduced?</text>
</g>
<!-- cz_koho_5&#45;&gt;de_20 -->
<g id="edge83" class="edge">
<title>cz_koho_5:e&#45;&gt;de_20:w</title>
<path fill="none" stroke="#000000" d="M952,-1582C952,-1582 1170,-922 1170,-922"/>
</g>
<!-- cz_koho_7 -->
<g id="node8" class="node">
<title>cz_koho_7</title>
<polygon fill="none" stroke="#000000" points="952,-1512 16,-1512 16,-1476 952,-1476 952,-1512"/>
<text text-anchor="end" x="944" y="-1490.3" font-family="Roboto" font-size="14.00" fill="#000000">Should there be a possibility of a EU&#45;wide referendum?</text>
</g>
<!-- cz_koho_6&#45;&gt;cz_koho_7 -->
<!-- de_7 -->
<g id="node49" class="node">
<title>de_7</title>
<polygon fill="none" stroke="#000000" points="2106,-1512 1170,-1512 1170,-1476 2106,-1476 2106,-1512"/>
<text text-anchor="start" x="1178" y="-1490.3" font-family="Roboto" font-size="14.00" fill="#000000">Should the taxes on finance products (e.g. shares) be raised?</text>
</g>
<!-- cz_koho_6&#45;&gt;de_7 -->
<g id="edge84" class="edge">
<title>cz_koho_6:e&#45;&gt;de_7:w</title>
<path fill="none" stroke="#000000" d="M952,-1538C952,-1538 1170,-1494 1170,-1494"/>
</g>
<!-- cz_koho_8 -->
<g id="node9" class="node">
<title>cz_koho_8</title>
<polygon fill="none" stroke="#000000" points="952,-1468 16,-1468 16,-1432 952,-1432 952,-1468"/>
<text text-anchor="end" x="944" y="-1446.3" font-family="Roboto" font-size="14.00" fill="#000000">Should the EU reduce financial subsidies to a member state that violates the feedom of press (media)?</text>
</g>
<!-- cz_koho_7&#45;&gt;cz_koho_8 -->
<!-- de_1 -->
<g id="node43" class="node">
<title>de_1</title>
<polygon fill="none" stroke="#000000" points="2106,-1776 1170,-1776 1170,-1740 2106,-1740 2106,-1776"/>
<text text-anchor="start" x="1178" y="-1754.3" font-family="Roboto" font-size="14.00" fill="#000000">Should EU&#45;wide referenda be implemented?</text>
</g>
<!-- cz_koho_7&#45;&gt;de_1 -->
<g id="edge85" class="edge">
<title>cz_koho_7:e&#45;&gt;de_1:w</title>
<path fill="none" stroke="#000000" d="M952,-1494C952,-1494 1170,-1758 1170,-1758"/>
</g>
<!-- cz_koho_9 -->
<g id="node10" class="node">
<title>cz_koho_9</title>
<polygon fill="none" stroke="#000000" points="952,-1424 16,-1424 16,-1388 952,-1388 952,-1424"/>
<text text-anchor="end" x="944" y="-1402.3" font-family="Roboto" font-size="14.00" fill="#000000">Should the EU have its own army?</text>
</g>
<!-- cz_koho_8&#45;&gt;cz_koho_9 -->
<!-- de_19 -->
<g id="node61" class="node">
<title>de_19</title>
<polygon fill="none" stroke="#000000" points="2106,-984 1170,-984 1170,-948 2106,-948 2106,-984"/>
<text text-anchor="start" x="1178" y="-962.3" font-family="Roboto" font-size="14.00" fill="#000000">Should those EU member states that violate the press and media freedom be punished with financial sanctions?</text>
</g>
<!-- cz_koho_8&#45;&gt;de_19 -->
<g id="edge86" class="edge">
<title>cz_koho_8:e&#45;&gt;de_19:w</title>
<path fill="none" stroke="#000000" d="M952,-1450C952,-1450 1170,-966 1170,-966"/>
</g>
<!-- cz_koho_10 -->
<g id="node11" class="node">
<title>cz_koho_10</title>
<polygon fill="none" stroke="#000000" points="952,-1380 16,-1380 16,-1344 952,-1344 952,-1380"/>
<text text-anchor="end" x="944" y="-1358.3" font-family="Roboto" font-size="14.00" fill="#000000">Should the EU increase the resources for international aid?</text>
</g>
<!-- cz_koho_9&#45;&gt;cz_koho_10 -->
<!-- de_3 -->
<g id="node45" class="node">
<title>de_3</title>
<polygon fill="none" stroke="#000000" points="2106,-1688 1170,-1688 1170,-1652 2106,-1652 2106,-1688"/>
<text text-anchor="start" x="1178" y="-1666.3" font-family="Roboto" font-size="14.00" fill="#000000">Should the EU member states build a joint army?</text>
</g>
<!-- cz_koho_9&#45;&gt;de_3 -->
<g id="edge87" class="edge">
<title>cz_koho_9:e&#45;&gt;de_3:w</title>
<path fill="none" stroke="#000000" d="M952,-1406C952,-1406 1170,-1670 1170,-1670"/>
</g>
<!-- cz_koho_11 -->
<g id="node12" class="node">
<title>cz_koho_11</title>
<polygon fill="none" stroke="#000000" points="952,-1336 16,-1336 16,-1300 952,-1300 952,-1336"/>
<text text-anchor="end" x="944" y="-1314.3" font-family="Roboto" font-size="14.00" fill="#000000">Should asylum applicants be distributed proportionally among the whole EU?</text>
</g>
<!-- cz_koho_10&#45;&gt;cz_koho_11 -->
<!-- de_11 -->
<g id="node53" class="node">
<title>de_11</title>
<polygon fill="none" stroke="#000000" points="2106,-1336 1170,-1336 1170,-1300 2106,-1300 2106,-1336"/>
<text text-anchor="start" x="1178" y="-1314.3" font-family="Roboto" font-size="14.00" fill="#000000">Should the EU provide more money for development aid?</text>
</g>
<!-- cz_koho_10&#45;&gt;de_11 -->
<g id="edge88" class="edge">
<title>cz_koho_10:e&#45;&gt;de_11:w</title>
<path fill="none" stroke="#000000" d="M952,-1362C952,-1362 1170,-1318 1170,-1318"/>
</g>
<!-- cz_koho_12 -->
<g id="node13" class="node">
<title>cz_koho_12</title>
<polygon fill="none" stroke="#000000" points="952,-1292 16,-1292 16,-1256 952,-1256 952,-1292"/>
<text text-anchor="end" x="944" y="-1270.3" font-family="Roboto" font-size="14.00" fill="#000000">Should the EU reduce its sanctions against Russia?</text>
</g>
<!-- cz_koho_11&#45;&gt;cz_koho_12 -->
<!-- de_34 -->
<g id="node76" class="node">
<title>de_34</title>
<polygon fill="none" stroke="#000000" points="2106,-324 1170,-324 1170,-288 2106,-288 2106,-324"/>
<text text-anchor="start" x="1178" y="-302.3" font-family="Roboto" font-size="14.00" fill="#000000">Should people seeking asylum in the EU be proportionally distributed among all EU member states?</text>
</g>
<!-- cz_koho_11&#45;&gt;de_34 -->
<g id="edge89" class="edge">
<title>cz_koho_11:e&#45;&gt;de_34:w</title>
<path fill="none" stroke="#000000" d="M952,-1318C952,-1318 1170,-306 1170,-306"/>
</g>
<!-- cz_koho_13 -->
<g id="node14" class="node">
<title>cz_koho_13</title>
<polygon fill="none" stroke="#000000" points="952,-1248 16,-1248 16,-1212 952,-1212 952,-1248"/>
<text text-anchor="end" x="944" y="-1226.3" font-family="Roboto" font-size="14.00" fill="#000000">Should all asylum applicants who try to cross the Mediterranean sea be brought back?</text>
</g>
<!-- cz_koho_12&#45;&gt;cz_koho_13 -->
<!-- de_30 -->
<g id="node72" class="node">
<title>de_30</title>
<polygon fill="none" stroke="#000000" points="2106,-500 1170,-500 1170,-464 2106,-464 2106,-500"/>
<text text-anchor="start" x="1178" y="-478.3" font-family="Roboto" font-size="14.00" fill="#000000">Should the EU lift its sanctions against Russia?</text>
</g>
<!-- cz_koho_12&#45;&gt;de_30 -->
<g id="edge90" class="edge">
<title>cz_koho_12:e&#45;&gt;de_30:w</title>
<path fill="none" stroke="#000000" d="M952,-1274C952,-1274 1170,-482 1170,-482"/>
</g>
<!-- cz_koho_14 -->
<g id="node15" class="node">
<title>cz_koho_14</title>
<polygon fill="none" stroke="#000000" points="952,-1204 16,-1204 16,-1168 952,-1168 952,-1204"/>
<text text-anchor="end" x="944" y="-1182.3" font-family="Roboto" font-size="14.00" fill="#000000">Should the EU support the member states in legalizing gay and lesbian marriage?</text>
</g>
<!-- cz_koho_13&#45;&gt;cz_koho_14 -->
<!-- de_29 -->
<g id="node71" class="node">
<title>de_29</title>
<polygon fill="none" stroke="#000000" points="2106,-544 1170,-544 1170,-508 2106,-508 2106,-544"/>
<text text-anchor="start" x="1178" y="-522.3" font-family="Roboto" font-size="14.00" fill="#000000">Should all asylum seekers who attempt to arrive to the EU via the Mediterranean sea be brought back to their respective countries of origin?</text>
</g>
<!-- cz_koho_13&#45;&gt;de_29 -->
<g id="edge91" class="edge">
<title>cz_koho_13:e&#45;&gt;de_29:w</title>
<path fill="none" stroke="#000000" d="M952,-1230C952,-1230 1170,-526 1170,-526"/>
</g>
<!-- cz_koho_15 -->
<g id="node16" class="node">
<title>cz_koho_15</title>
<polygon fill="none" stroke="#000000" points="952,-1160 16,-1160 16,-1124 952,-1124 952,-1160"/>
<text text-anchor="end" x="944" y="-1138.3" font-family="Roboto" font-size="14.00" fill="#000000">Should the EU support implementation of a minimal wage which could be different in each country?</text>
</g>
<!-- cz_koho_14&#45;&gt;cz_koho_15 -->
<!-- de_24 -->
<g id="node66" class="node">
<title>de_24</title>
<polygon fill="none" stroke="#000000" points="2106,-764 1170,-764 1170,-728 2106,-728 2106,-764"/>
<text text-anchor="start" x="1178" y="-742.3" font-family="Roboto" font-size="14.00" fill="#000000">Should the EU support implementation of same&#45;sax marriage in all EU member states?</text>
</g>
<!-- cz_koho_14&#45;&gt;de_24 -->
<g id="edge92" class="edge">
<title>cz_koho_14:e&#45;&gt;de_24:w</title>
<path fill="none" stroke="#000000" d="M952,-1186C952,-1186 1170,-746 1170,-746"/>
</g>
<!-- cz_koho_16 -->
<g id="node17" class="node">
<title>cz_koho_16</title>
<polygon fill="none" stroke="#000000" points="952,-1116 16,-1116 16,-1080 952,-1080 952,-1116"/>
<text text-anchor="end" x="944" y="-1094.3" font-family="Roboto" font-size="14.00" fill="#000000">Should it be harder for the citizens of other EU member states to get social support?</text>
</g>
<!-- cz_koho_15&#45;&gt;cz_koho_16 -->
<!-- de_13 -->
<g id="node55" class="node">
<title>de_13</title>
<polygon fill="none" stroke="#000000" points="2106,-1248 1170,-1248 1170,-1212 2106,-1212 2106,-1248"/>
<text text-anchor="start" x="1178" y="-1226.3" font-family="Roboto" font-size="14.00" fill="#000000">Should the EU support implementation of a minimum wage in each member state?</text>
</g>
<!-- cz_koho_15&#45;&gt;de_13 -->
<g id="edge93" class="edge">
<title>cz_koho_15:e&#45;&gt;de_13:w</title>
<path fill="none" stroke="#000000" d="M952,-1142C952,-1142 1170,-1230 1170,-1230"/>
</g>
<!-- cz_koho_17 -->
<g id="node18" class="node">
<title>cz_koho_17</title>
<polygon fill="none" stroke="#000000" points="952,-1072 16,-1072 16,-1036 952,-1036 952,-1072"/>
<text text-anchor="end" x="944" y="-1050.3" font-family="Roboto" font-size="14.00" fill="#000000">Should the citizens of the EU have the possibility to also vote for EU&#45;wide super&#45;national political parties in the European Parliament election?</text>
</g>
<!-- cz_koho_16&#45;&gt;cz_koho_17 -->
<!-- de_9 -->
<g id="node51" class="node">
<title>de_9</title>
<polygon fill="none" stroke="#000000" points="2106,-1424 1170,-1424 1170,-1388 2106,-1388 2106,-1424"/>
<text text-anchor="start" x="1178" y="-1402.3" font-family="Roboto" font-size="14.00" fill="#000000">Should EU citizens who move to another member state receive limited social services?</text>
</g>
<!-- cz_koho_16&#45;&gt;de_9 -->
<g id="edge94" class="edge">
<title>cz_koho_16:e&#45;&gt;de_9:w</title>
<path fill="none" stroke="#000000" d="M952,-1098C952,-1098 1170,-1406 1170,-1406"/>
</g>
<!-- cz_koho_18 -->
<g id="node19" class="node">
<title>cz_koho_18</title>
<polygon fill="#d3d3d3" stroke="#000000" points="952,-1028 16,-1028 16,-992 952,-992 952,-1028"/>
<text text-anchor="end" x="944" y="-1006.3" font-family="Roboto" font-size="14.00" fill="#000000">Should the European Parliament have the right to initiate laws without the need to approach the European Commission?</text>
</g>
<!-- cz_koho_17&#45;&gt;cz_koho_18 -->
<!-- de_10 -->
<g id="node52" class="node">
<title>de_10</title>
<polygon fill="none" stroke="#000000" points="2106,-1380 1170,-1380 1170,-1344 2106,-1344 2106,-1380"/>
<text text-anchor="start" x="1178" y="-1358.3" font-family="Roboto" font-size="14.00" fill="#000000">Should EU citizens be allowed to vote for candidates of other member states in the election to the EU parliament?</text>
</g>
<!-- cz_koho_17&#45;&gt;de_10 -->
<g id="edge95" class="edge">
<title>cz_koho_17:e&#45;&gt;de_10:w</title>
<path fill="none" stroke="#000000" d="M952,-1054C952,-1054 1170,-1362 1170,-1362"/>
</g>
<!-- cz_koho_19 -->
<g id="node20" class="node">
<title>cz_koho_19</title>
<polygon fill="none" stroke="#000000" points="952,-984 16,-984 16,-948 952,-948 952,-984"/>
<text text-anchor="end" x="944" y="-962.3" font-family="Roboto" font-size="14.00" fill="#000000">Should the EU member states be prohibited from subsidizing nuclear power?</text>
</g>
<!-- cz_koho_18&#45;&gt;cz_koho_19 -->
<!-- cz_koho_20 -->
<g id="node21" class="node">
<title>cz_koho_20</title>
<polygon fill="#d3d3d3" stroke="#000000" points="952,-940 16,-940 16,-904 952,-904 952,-940"/>
<text text-anchor="end" x="944" y="-918.3" font-family="Roboto" font-size="14.00" fill="#000000">Should tariffs on agricultural products from developing countries be reduced?</text>
</g>
<!-- cz_koho_19&#45;&gt;cz_koho_20 -->
<!-- de_17 -->
<g id="node59" class="node">
<title>de_17</title>
<polygon fill="none" stroke="#000000" points="2106,-1072 1170,-1072 1170,-1036 2106,-1036 2106,-1072"/>
<text text-anchor="start" x="1178" y="-1050.3" font-family="Roboto" font-size="14.00" fill="#000000">Should atomic power plants continue to be operated in other EU member states?</text>
</g>
<!-- cz_koho_19&#45;&gt;de_17 -->
<g id="edge96" class="edge">
<title>cz_koho_19:e&#45;&gt;de_17:w</title>
<path fill="none" stroke="#000000" d="M952,-966C952,-966 1170,-1054 1170,-1054"/>
</g>
<!-- cz_koho_21 -->
<g id="node22" class="node">
<title>cz_koho_21</title>
<polygon fill="#d3d3d3" stroke="#000000" points="952,-896 16,-896 16,-860 952,-860 952,-896"/>
<text text-anchor="end" x="944" y="-874.3" font-family="Roboto" font-size="14.00" fill="#000000">Should the chairman of the European Commission be elected in a direct election by the citizens of the EU?</text>
</g>
<!-- cz_koho_20&#45;&gt;cz_koho_21 -->
<!-- cz_koho_22 -->
<g id="node23" class="node">
<title>cz_koho_22</title>
<polygon fill="none" stroke="#000000" points="952,-852 16,-852 16,-816 952,-816 952,-852"/>
<text text-anchor="end" x="944" y="-830.3" font-family="Roboto" font-size="14.00" fill="#000000">Should the EU member states cooperate more on common foreign and security policy?</text>
</g>
<!-- cz_koho_21&#45;&gt;cz_koho_22 -->
<!-- cz_koho_23 -->
<g id="node24" class="node">
<title>cz_koho_23</title>
<polygon fill="#d3d3d3" stroke="#000000" points="952,-808 16,-808 16,-772 952,-772 952,-808"/>
<text text-anchor="end" x="944" y="-786.3" font-family="Roboto" font-size="14.00" fill="#000000">Should the EU stop accession of more countries to the EU?</text>
</g>
<!-- cz_koho_22&#45;&gt;cz_koho_23 -->
<!-- de_33 -->
<g id="node75" class="node">
<title>de_33</title>
<polygon fill="none" stroke="#000000" points="2106,-368 1170,-368 1170,-332 2106,-332 2106,-368"/>
<text text-anchor="start" x="1178" y="-346.3" font-family="Roboto" font-size="14.00" fill="#000000">Should foreign policy decisions of the EU be more often decided by a majority vote rather than unanimously?</text>
</g>
<!-- cz_koho_22&#45;&gt;de_33 -->
<g id="edge97" class="edge">
<title>cz_koho_22:e&#45;&gt;de_33:w</title>
<path fill="none" stroke="#000000" stroke-dasharray="5,2" d="M952,-834C952,-834 1170,-350 1170,-350"/>
</g>
<!-- cz_koho_24 -->
<g id="node25" class="node">
<title>cz_koho_24</title>
<polygon fill="none" stroke="#000000" points="952,-764 16,-764 16,-728 952,-728 952,-764"/>
<text text-anchor="end" x="944" y="-742.3" font-family="Roboto" font-size="14.00" fill="#000000">Should a common minimal rate for the company income tax be implemented in the whole EU?</text>
</g>
<!-- cz_koho_23&#45;&gt;cz_koho_24 -->
<!-- cz_koho_25 -->
<g id="node26" class="node">
<title>cz_koho_25</title>
<polygon fill="#d3d3d3" stroke="#000000" points="952,-720 16,-720 16,-684 952,-684 952,-720"/>
<text text-anchor="end" x="944" y="-698.3" font-family="Roboto" font-size="14.00" fill="#000000">Should the asylum requirements be the same in all EU member states?</text>
</g>
<!-- cz_koho_24&#45;&gt;cz_koho_25 -->
<!-- cz_koho_24&#45;&gt;de_13 -->
<g id="edge98" class="edge">
<title>cz_koho_24:e&#45;&gt;de_13:w</title>
<path fill="none" stroke="#000000" d="M952,-746C952,-746 1170,-1230 1170,-1230"/>
</g>
<!-- cz_koho_26 -->
<g id="node27" class="node">
<title>cz_koho_26</title>
<polygon fill="#d3d3d3" stroke="#000000" points="952,-676 16,-676 16,-640 952,-640 952,-676"/>
<text text-anchor="end" x="944" y="-654.3" font-family="Roboto" font-size="14.00" fill="#000000">Should the EU collect european taxes which would replace existing contributions of the member states?</text>
</g>
<!-- cz_koho_25&#45;&gt;cz_koho_26 -->
<!-- cz_koho_27 -->
<g id="node28" class="node">
<title>cz_koho_27</title>
<polygon fill="none" stroke="#000000" points="952,-632 16,-632 16,-596 952,-596 952,-632"/>
<text text-anchor="end" x="944" y="-610.3" font-family="Roboto" font-size="14.00" fill="#000000">Should the EU become a federation?</text>
</g>
<!-- cz_koho_26&#45;&gt;cz_koho_27 -->
<!-- cz_koho_28 -->
<g id="node29" class="node">
<title>cz_koho_28</title>
<polygon fill="#d3d3d3" stroke="#000000" points="952,-588 16,-588 16,-552 952,-552 952,-588"/>
<text text-anchor="end" x="944" y="-566.3" font-family="Roboto" font-size="14.00" fill="#000000">Should the composition of the European Commission match the results of the European Parliament election?</text>
</g>
<!-- cz_koho_27&#45;&gt;cz_koho_28 -->
<!-- de_37 -->
<g id="node79" class="node">
<title>de_37</title>
<polygon fill="none" stroke="#000000" points="2106,-192 1170,-192 1170,-156 2106,-156 2106,-192"/>
<text text-anchor="start" x="1178" y="-170.3" font-family="Roboto" font-size="14.00" fill="#000000">Should the EU evolve into a federation in the long term?</text>
</g>
<!-- cz_koho_27&#45;&gt;de_37 -->
<g id="edge99" class="edge">
<title>cz_koho_27:e&#45;&gt;de_37:w</title>
<path fill="none" stroke="#000000" d="M952,-614C952,-614 1170,-174 1170,-174"/>
</g>
<!-- cz_koho_29 -->
<g id="node30" class="node">
<title>cz_koho_29</title>
<polygon fill="#d3d3d3" stroke="#000000" points="952,-544 16,-544 16,-508 952,-508 952,-544"/>
<text text-anchor="end" x="944" y="-522.3" font-family="Roboto" font-size="14.00" fill="#000000">Should there be more money given to the Erasmus program?</text>
</g>
<!-- cz_koho_28&#45;&gt;cz_koho_29 -->
<!-- cz_koho_30 -->
<g id="node31" class="node">
<title>cz_koho_30</title>
<polygon fill="#d3d3d3" stroke="#000000" points="952,-500 16,-500 16,-464 952,-464 952,-500"/>
<text text-anchor="end" x="944" y="-478.3" font-family="Roboto" font-size="14.00" fill="#000000">Should the value&#45;added tax rates be unified in the whole EU?</text>
</g>
<!-- cz_koho_29&#45;&gt;cz_koho_30 -->
<!-- cz_koho_31 -->
<g id="node32" class="node">
<title>cz_koho_31</title>
<polygon fill="#d3d3d3" stroke="#000000" points="952,-456 16,-456 16,-420 952,-420 952,-456"/>
<text text-anchor="end" x="944" y="-434.3" font-family="Roboto" font-size="14.00" fill="#000000">Should the EU stop setting detailed regulation on food [e.g. food labelling regulation]?</text>
</g>
<!-- cz_koho_30&#45;&gt;cz_koho_31 -->
<!-- cz_koho_32 -->
<g id="node33" class="node">
<title>cz_koho_32</title>
<polygon fill="#d3d3d3" stroke="#000000" points="952,-412 16,-412 16,-376 952,-376 952,-412"/>
<text text-anchor="end" x="944" y="-390.3" font-family="Roboto" font-size="14.00" fill="#000000">Should the duration of copyright in the EU be shortened?</text>
</g>
<!-- cz_koho_31&#45;&gt;cz_koho_32 -->
<!-- cz_koho_33 -->
<g id="node34" class="node">
<title>cz_koho_33</title>
<polygon fill="#d3d3d3" stroke="#000000" points="952,-368 16,-368 16,-332 952,-332 952,-368"/>
<text text-anchor="end" x="944" y="-346.3" font-family="Roboto" font-size="14.00" fill="#000000">Should the EU member states have the possibility to restrict employment of citizens of other EU member states?</text>
</g>
<!-- cz_koho_32&#45;&gt;cz_koho_33 -->
<!-- cz_koho_34 -->
<g id="node35" class="node">
<title>cz_koho_34</title>
<polygon fill="#d3d3d3" stroke="#000000" points="952,-324 16,-324 16,-288 952,-288 952,-324"/>
<text text-anchor="end" x="944" y="-302.3" font-family="Roboto" font-size="14.00" fill="#000000">Should agricultural subsidies be reduced?</text>
</g>
<!-- cz_koho_33&#45;&gt;cz_koho_34 -->
<!-- cz_koho_35 -->
<g id="node36" class="node">
<title>cz_koho_35</title>
<polygon fill="#d3d3d3" stroke="#000000" points="952,-280 16,-280 16,-244 952,-244 952,-280"/>
<text text-anchor="end" x="944" y="-258.3" font-family="Roboto" font-size="14.00" fill="#000000">Should the air transport and other means of transport be taxed equally?</text>
</g>
<!-- cz_koho_34&#45;&gt;cz_koho_35 -->
<!-- cz_koho_36 -->
<g id="node37" class="node">
<title>cz_koho_36</title>
<polygon fill="#d3d3d3" stroke="#000000" points="952,-236 16,-236 16,-200 952,-200 952,-236"/>
<text text-anchor="end" x="944" y="-214.3" font-family="Roboto" font-size="14.00" fill="#000000">Should international companies pay their income tax in the country, where the income was actually created?</text>
</g>
<!-- cz_koho_35&#45;&gt;cz_koho_36 -->
<!-- cz_koho_37 -->
<g id="node38" class="node">
<title>cz_koho_37</title>
<polygon fill="#d3d3d3" stroke="#000000" points="952,-192 16,-192 16,-156 952,-156 952,-192"/>
<text text-anchor="end" x="944" y="-170.3" font-family="Roboto" font-size="14.00" fill="#000000">Should subsidies to large agricultural companies be reduced?</text>
</g>
<!-- cz_koho_36&#45;&gt;cz_koho_37 -->
<!-- cz_koho_38 -->
<g id="node39" class="node">
<title>cz_koho_38</title>
<polygon fill="#d3d3d3" stroke="#000000" points="952,-148 16,-148 16,-112 952,-112 952,-148"/>
<text text-anchor="end" x="944" y="-126.3" font-family="Roboto" font-size="14.00" fill="#000000">Should dual quality of food be prohibited?</text>
</g>
<!-- cz_koho_37&#45;&gt;cz_koho_38 -->
<!-- cz_koho_39 -->
<g id="node40" class="node">
<title>cz_koho_39</title>
<polygon fill="#d3d3d3" stroke="#000000" points="952,-96 16,-96 16,-60 952,-60 952,-96"/>
<text text-anchor="end" x="944" y="-74.3" font-family="Roboto" font-size="14.00" fill="#000000">Should the data protection regulation (GDPR) be revoked?</text>
</g>
<!-- cz_koho_38&#45;&gt;cz_koho_39 -->
<!-- cz_koho_40 -->
<g id="node41" class="node">
<title>cz_koho_40</title>
<polygon fill="none" stroke="#000000" points="952,-52 16,-52 16,-16 952,-16 952,-52"/>
<text text-anchor="end" x="944" y="-30.3" font-family="Roboto" font-size="14.00" fill="#000000">Should the Czech Republic leave the EU?</text>
</g>
<!-- cz_koho_39&#45;&gt;cz_koho_40 -->
<!-- de_16 -->
<g id="node58" class="node">
<title>de_16</title>
<polygon fill="none" stroke="#000000" points="2106,-1116 1170,-1116 1170,-1080 2106,-1080 2106,-1116"/>
<text text-anchor="start" x="1178" y="-1094.3" font-family="Roboto" font-size="14.00" fill="#000000">Should Germany leave the EU?</text>
</g>
<!-- cz_koho_40&#45;&gt;de_16 -->
<g id="edge100" class="edge">
<title>cz_koho_40:e&#45;&gt;de_16:w</title>
<path fill="none" stroke="#000000" d="M952,-34C952,-34 1170,-1098 1170,-1098"/>
</g>
<!-- label1 -->
<g id="node42" class="node">
<title>label1</title>
<text text-anchor="middle" x="1638" y="-1806.3" font-family="Roboto" font-size="14.00" fill="#000000">Germany &#45; Wahl&#45;O&#45;Mat</text>
</g>
<!-- label1&#45;&gt;de_1 -->
<!-- de_1&#45;&gt;de_2 -->
<!-- de_2&#45;&gt;de_3 -->
<!-- de_4 -->
<g id="node46" class="node">
<title>de_4</title>
<polygon fill="#d3d3d3" stroke="#000000" points="2106,-1644 1170,-1644 1170,-1608 2106,-1608 2106,-1644"/>
<text text-anchor="start" x="1178" y="-1622.3" font-family="Roboto" font-size="14.00" fill="#000000">Should the EU support mainly organic farming?</text>
</g>
<!-- de_3&#45;&gt;de_4 -->
<!-- de_4&#45;&gt;de_5 -->
<!-- de_6 -->
<g id="node48" class="node">
<title>de_6</title>
<polygon fill="#d3d3d3" stroke="#000000" points="2106,-1556 1170,-1556 1170,-1520 2106,-1520 2106,-1556"/>
<text text-anchor="start" x="1178" y="-1534.3" font-family="Roboto" font-size="14.00" fill="#000000">Should the EU support private rescue initiatives in the Mediterranean sea?</text>
</g>
<!-- de_5&#45;&gt;de_6 -->
<!-- de_6&#45;&gt;de_7 -->
<!-- de_7&#45;&gt;de_8 -->
<!-- de_8&#45;&gt;de_9 -->
<!-- de_9&#45;&gt;de_10 -->
<!-- de_10&#45;&gt;de_11 -->
<!-- de_12 -->
<g id="node54" class="node">
<title>de_12</title>
<polygon fill="#d3d3d3" stroke="#000000" points="2106,-1292 1170,-1292 1170,-1256 2106,-1256 2106,-1292"/>
<text text-anchor="start" x="1178" y="-1270.3" font-family="Roboto" font-size="14.00" fill="#000000">Should the EU member states continue storing data on flight passengers?</text>
</g>
<!-- de_11&#45;&gt;de_12 -->
<!-- de_12&#45;&gt;de_13 -->
<!-- de_14 -->
<g id="node56" class="node">
<title>de_14</title>
<polygon fill="#d3d3d3" stroke="#000000" points="2106,-1204 1170,-1204 1170,-1168 2106,-1168 2106,-1204"/>
<text text-anchor="start" x="1178" y="-1182.3" font-family="Roboto" font-size="14.00" fill="#000000">Should the EU hold on to the refugee agreement with Turkey?</text>
</g>
<!-- de_13&#45;&gt;de_14 -->
<!-- de_15 -->
<g id="node57" class="node">
<title>de_15</title>
<polygon fill="#d3d3d3" stroke="#000000" points="2106,-1160 1170,-1160 1170,-1124 2106,-1124 2106,-1160"/>
<text text-anchor="start" x="1178" y="-1138.3" font-family="Roboto" font-size="14.00" fill="#000000">Should there be a mandatory women&#39;s quota for supervisory boards of companies in the EU?</text>
</g>
<!-- de_14&#45;&gt;de_15 -->
<!-- de_15&#45;&gt;de_16 -->
<!-- de_16&#45;&gt;de_17 -->
<!-- de_18 -->
<g id="node60" class="node">
<title>de_18</title>
<polygon fill="#d3d3d3" stroke="#000000" points="2106,-1028 1170,-1028 1170,-992 2106,-992 2106,-1028"/>
<text text-anchor="start" x="1178" y="-1006.3" font-family="Roboto" font-size="14.00" fill="#000000">Should the EU support immigration of skilled employees from non&#45;EU countries?</text>
</g>
<!-- de_17&#45;&gt;de_18 -->
<!-- de_18&#45;&gt;de_19 -->
<!-- de_19&#45;&gt;de_20 -->
<!-- de_21 -->
<g id="node63" class="node">
<title>de_21</title>
<polygon fill="#d3d3d3" stroke="#000000" points="2106,-896 1170,-896 1170,-860 2106,-860 2106,-896"/>
<text text-anchor="start" x="1178" y="-874.3" font-family="Roboto" font-size="14.00" fill="#000000">Should animal testing in medical research continue to be allowed?</text>
</g>
<!-- de_20&#45;&gt;de_21 -->
<!-- de_22 -->
<g id="node64" class="node">
<title>de_22</title>
<polygon fill="#d3d3d3" stroke="#000000" points="2106,-852 1170,-852 1170,-816 2106,-816 2106,-852"/>
<text text-anchor="start" x="1178" y="-830.3" font-family="Roboto" font-size="14.00" fill="#000000">Should the competences of the european police agency Europol be extended?</text>
</g>
<!-- de_21&#45;&gt;de_22 -->
<!-- de_23 -->
<g id="node65" class="node">
<title>de_23</title>
<polygon fill="#d3d3d3" stroke="#000000" points="2106,-808 1170,-808 1170,-772 2106,-772 2106,-808"/>
<text text-anchor="start" x="1178" y="-786.3" font-family="Roboto" font-size="14.00" fill="#000000">Should there be a minimum rate for corporate tax in the EU?</text>
</g>
<!-- de_22&#45;&gt;de_23 -->
<!-- de_23&#45;&gt;de_24 -->
<!-- de_24&#45;&gt;de_25 -->
<!-- de_26 -->
<g id="node68" class="node">
<title>de_26</title>
<polygon fill="#d3d3d3" stroke="#000000" points="2106,-676 1170,-676 1170,-640 2106,-640 2106,-676"/>
<text text-anchor="start" x="1178" y="-654.3" font-family="Roboto" font-size="14.00" fill="#000000">Should a highway toll for trucks be implemented in all EU member states?</text>
</g>
<!-- de_25&#45;&gt;de_26 -->
<!-- de_27 -->
<g id="node69" class="node">
<title>de_27</title>
<polygon fill="#d3d3d3" stroke="#000000" points="2106,-632 1170,-632 1170,-596 2106,-596 2106,-632"/>
<text text-anchor="start" x="1178" y="-610.3" font-family="Roboto" font-size="14.00" fill="#000000">Should the EU consider itself a Christian community?</text>
</g>
<!-- de_26&#45;&gt;de_27 -->
<!-- de_28 -->
<g id="node70" class="node">
<title>de_28</title>
<polygon fill="#d3d3d3" stroke="#000000" points="2106,-588 1170,-588 1170,-552 2106,-552 2106,-588"/>
<text text-anchor="start" x="1178" y="-566.3" font-family="Roboto" font-size="14.00" fill="#000000">Should all banks be nationalized?</text>
</g>
<!-- de_27&#45;&gt;de_28 -->
<!-- de_28&#45;&gt;de_29 -->
<!-- de_29&#45;&gt;de_30 -->
<!-- de_31 -->
<g id="node73" class="node">
<title>de_31</title>
<polygon fill="#d3d3d3" stroke="#000000" points="2106,-456 1170,-456 1170,-420 2106,-420 2106,-456"/>
<text text-anchor="start" x="1178" y="-434.3" font-family="Roboto" font-size="14.00" fill="#000000">Should plastic packaging be taxed in all EU member states?</text>
</g>
<!-- de_30&#45;&gt;de_31 -->
<!-- de_32 -->
<g id="node74" class="node">
<title>de_32</title>
<polygon fill="#d3d3d3" stroke="#000000" points="2106,-412 1170,-412 1170,-376 2106,-376 2106,-412"/>
<text text-anchor="start" x="1178" y="-390.3" font-family="Roboto" font-size="14.00" fill="#000000">Should initiatives against antisemitism be financially supported in the EU?</text>
</g>
<!-- de_31&#45;&gt;de_32 -->
<!-- de_32&#45;&gt;de_33 -->
<!-- de_33&#45;&gt;de_34 -->
<!-- de_35 -->
<g id="node77" class="node">
<title>de_35</title>
<polygon fill="#d3d3d3" stroke="#000000" points="2106,-280 1170,-280 1170,-244 2106,-244 2106,-280"/>
<text text-anchor="start" x="1178" y="-258.3" font-family="Roboto" font-size="14.00" fill="#000000">Should the limits on the amount of catch of the European fishing industry be strengthened?</text>
</g>
<!-- de_34&#45;&gt;de_35 -->
<!-- de_36 -->
<g id="node78" class="node">
<title>de_36</title>
<polygon fill="#d3d3d3" stroke="#000000" points="2106,-236 1170,-236 1170,-200 2106,-200 2106,-236"/>
<text text-anchor="start" x="1178" y="-214.3" font-family="Roboto" font-size="14.00" fill="#000000">Should there again be border controls between EU member states?</text>
</g>
<!-- de_35&#45;&gt;de_36 -->
<!-- de_36&#45;&gt;de_37 -->
<!-- de_38 -->
<g id="node80" class="node">
<title>de_38</title>
<polygon fill="#d3d3d3" stroke="#000000" points="2106,-148 1170,-148 1170,-112 2106,-112 2106,-148"/>
<text text-anchor="start" x="1178" y="-126.3" font-family="Roboto" font-size="14.00" fill="#000000">Should people over the age of 16 be allowed to vote in the European Parliament election?</text>
</g>
<!-- de_37&#45;&gt;de_38 -->
</g>
</svg>
