<?xml version="1.0" encoding="UTF-8" standalone="no"?>
<!DOCTYPE svg PUBLIC "-//W3C//DTD SVG 1.1//EN"
 "http://www.w3.org/Graphics/SVG/1.1/DTD/svg11.dtd">
<!-- Generated by graphviz version 2.40.1 (0)
 -->
<!-- Title: G Pages: 1 -->
<svg width="2130pt" height="1828pt"
 viewBox="0.00 0.00 2130.00 1828.00" xmlns="http://www.w3.org/2000/svg" xmlns:xlink="http://www.w3.org/1999/xlink">
<g id="graph0" class="graph" transform="scale(1 1) rotate(0) translate(4 1824)">
<title>G</title>
<polygon fill="#ffffff" stroke="transparent" points="-4,4 -4,-1824 2126,-1824 2126,4 -4,4"/>
<g id="clust1" class="cluster">
<title>cluster0</title>
<polygon fill="none" stroke="transparent" points="8,-8 8,-1776 960,-1776 960,-8 8,-8"/>
</g>
<g id="clust2" class="cluster">
<title>cluster1</title>
<polygon fill="none" stroke="transparent" points="1162,-8 1162,-1776 2114,-1776 2114,-8 1162,-8"/>
</g>
<!-- label0 -->
<g id="node1" class="node">
<title>label0</title>
<text text-anchor="middle" x="484" y="-1798.3" font-family="Roboto" font-size="14.00" fill="#000000">Czech Republic &#45; KohoVolit.eu</text>
</g>
<!-- cz_koho_1 -->
<g id="node2" class="node">
<title>cz_koho_1</title>
<polygon fill="none" stroke="#000000" points="952,-1768 16,-1768 16,-1732 952,-1732 952,-1768"/>
<text text-anchor="end" x="944" y="-1746.3" font-family="Roboto" font-size="14.00" fill="#000000">Should the Czech Republic adopt the euro as soon as possible?</text>
</g>
<!-- label0&#45;&gt;cz_koho_1 -->
<!-- cz_koho_2 -->
<g id="node3" class="node">
<title>cz_koho_2</title>
<polygon fill="none" stroke="#000000" points="952,-1724 16,-1724 16,-1688 952,-1688 952,-1724"/>
<text text-anchor="end" x="944" y="-1702.3" font-family="Roboto" font-size="14.00" fill="#000000">Should the EU member states be seriously afflicted if they break the EU rules on budget deficit?</text>
</g>
<!-- cz_koho_1&#45;&gt;cz_koho_2 -->
<!-- de_5 -->
<g id="node47" class="node">
<title>de_5</title>
<polygon fill="none" stroke="#000000" points="2106,-1592 1170,-1592 1170,-1556 2106,-1556 2106,-1592"/>
<text text-anchor="start" x="1178" y="-1570.3" font-family="Roboto" font-size="14.00" fill="#000000">Should Germany revert from the euro to a national currency?</text>
</g>
<!-- cz_koho_1&#45;&gt;de_5 -->
<g id="edge81" class="edge">
<title>cz_koho_1:e&#45;&gt;de_5:w</title>
<path fill="none" stroke="#000000" d="M952,-1750C952,-1750 1170,-1574 1170,-1574"/>
</g>
<!-- cz_koho_3 -->
<g id="node4" class="node">
<title>cz_koho_3</title>
<polygon fill="none" stroke="#000000" points="952,-1680 16,-1680 16,-1644 952,-1644 952,-1680"/>
<text text-anchor="end" x="944" y="-1658.3" font-family="Roboto" font-size="14.00" fill="#000000">Should it be allowed to grow genetically modified plants in the whole EU?</text>
</g>
<!-- cz_koho_2&#45;&gt;cz_koho_3 -->
<!-- de_25 -->
<g id="node67" class="node">
<title>de_25</title>
<polygon fill="none" stroke="#000000" points="2106,-712 1170,-712 1170,-676 2106,-676 2106,-712"/>
<text text-anchor="start" x="1178" y="-690.3" font-family="Roboto" font-size="14.00" fill="#000000">Should those EU member states that violate the EU rules for excess of the national debt be punished?</text>
</g>
<!-- cz_koho_2&#45;&gt;de_25 -->
<g id="edge82" class="edge">
<title>cz_koho_2:e&#45;&gt;de_25:w</title>
<path fill="none" stroke="#000000" d="M952,-1706C952,-1706 1170,-694 1170,-694"/>
</g>
<!-- cz_koho_4 -->
<g id="node5" class="node">
<title>cz_koho_4</title>
<polygon fill="none" stroke="#000000" points="952,-1636 16,-1636 16,-1600 952,-1600 952,-1636"/>
<text text-anchor="end" x="944" y="-1614.3" font-family="Roboto" font-size="14.00" fill="#000000">Should the EU advance substantial reduction of carbon emissions?</text>
</g>
<!-- cz_koho_3&#45;&gt;cz_koho_4 -->
<!-- de_8 -->
<g id="node50" class="node">
<title>de_8</title>
<polygon fill="none" stroke="#000000" points="2106,-1460 1170,-1460 1170,-1424 2106,-1424 2106,-1460"/>
<text text-anchor="start" x="1178" y="-1438.3" font-family="Roboto" font-size="14.00" fill="#000000">Should the cultivation of genetically modified plants be allowed in the EU?</text>
</g>
<!-- cz_koho_3&#45;&gt;de_8 -->
<g id="edge83" class="edge">
<title>cz_koho_3:e&#45;&gt;de_8:w</title>
<path fill="none" stroke="#000000" d="M952,-1662C952,-1662 1170,-1442 1170,-1442"/>
</g>
<!-- cz_koho_5 -->
<g id="node6" class="node">
<title>cz_koho_5</title>
<polygon fill="none" stroke="#000000" points="952,-1592 16,-1592 16,-1556 952,-1556 952,-1592"/>
<text text-anchor="end" x="944" y="-1570.3" font-family="Roboto" font-size="14.00" fill="#000000">Should financial aid to the economically weaker regions of the EU be reduced?</text>
</g>
<!-- cz_koho_4&#45;&gt;cz_koho_5 -->
<!-- de_2 -->
<g id="node44" class="node">
<title>de_2</title>
<polygon fill="none" stroke="#000000" points="2106,-1724 1170,-1724 1170,-1688 2106,-1688 2106,-1724"/>
<text text-anchor="start" x="1178" y="-1702.3" font-family="Roboto" font-size="14.00" fill="#000000">Should the EU set higher goals for the reduction of carbon emissions?</text>
</g>
<!-- cz_koho_4&#45;&gt;de_2 -->
<g id="edge84" class="edge">
<title>cz_koho_4:e&#45;&gt;de_2:w</title>
<path fill="none" stroke="#000000" d="M952,-1618C952,-1618 1170,-1706 1170,-1706"/>
</g>
<!-- cz_koho_6 -->
<g id="node7" class="node">
<title>cz_koho_6</title>
<polygon fill="none" stroke="#000000" points="952,-1548 16,-1548 16,-1512 952,-1512 952,-1548"/>
<text text-anchor="end" x="944" y="-1526.3" font-family="Roboto" font-size="14.00" fill="#000000">Should a tax on financial transactions be implemented?</text>
</g>
<!-- cz_koho_5&#45;&gt;cz_koho_6 -->
<!-- de_20 -->
<g id="node62" class="node">
<title>de_20</title>
<polygon fill="none" stroke="#000000" points="2106,-932 1170,-932 1170,-896 2106,-896 2106,-932"/>
<text text-anchor="start" x="1178" y="-910.3" font-family="Roboto" font-size="14.00" fill="#000000">Should financial support for economically weaker regions of the EU be reduced?</text>
</g>
<!-- cz_koho_5&#45;&gt;de_20 -->
<g id="edge85" class="edge">
<title>cz_koho_5:e&#45;&gt;de_20:w</title>
<path fill="none" stroke="#000000" d="M952,-1574C952,-1574 1170,-914 1170,-914"/>
</g>
<!-- cz_koho_7 -->
<g id="node8" class="node">
<title>cz_koho_7</title>
<polygon fill="none" stroke="#000000" points="952,-1504 16,-1504 16,-1468 952,-1468 952,-1504"/>
<text text-anchor="end" x="944" y="-1482.3" font-family="Roboto" font-size="14.00" fill="#000000">Should there be a possibility of a EU&#45;wide referendum?</text>
</g>
<!-- cz_koho_6&#45;&gt;cz_koho_7 -->
<!-- de_7 -->
<g id="node49" class="node">
<title>de_7</title>
<polygon fill="none" stroke="#000000" points="2106,-1504 1170,-1504 1170,-1468 2106,-1468 2106,-1504"/>
<text text-anchor="start" x="1178" y="-1482.3" font-family="Roboto" font-size="14.00" fill="#000000">Should the taxes on finance products (e.g. shares) be raised?</text>
</g>
<!-- cz_koho_6&#45;&gt;de_7 -->
<g id="edge86" class="edge">
<title>cz_koho_6:e&#45;&gt;de_7:w</title>
<path fill="none" stroke="#000000" d="M952,-1530C952,-1530 1170,-1486 1170,-1486"/>
</g>
<!-- cz_koho_8 -->
<g id="node9" class="node">
<title>cz_koho_8</title>
<polygon fill="none" stroke="#000000" points="952,-1460 16,-1460 16,-1424 952,-1424 952,-1460"/>
<text text-anchor="end" x="944" y="-1438.3" font-family="Roboto" font-size="14.00" fill="#000000">Should the EU reduce financial subsidies to a member state that violates the feedom of press (media)?</text>
</g>
<!-- cz_koho_7&#45;&gt;cz_koho_8 -->
<!-- de_1 -->
<g id="node43" class="node">
<title>de_1</title>
<polygon fill="none" stroke="#000000" points="2106,-1768 1170,-1768 1170,-1732 2106,-1732 2106,-1768"/>
<text text-anchor="start" x="1178" y="-1746.3" font-family="Roboto" font-size="14.00" fill="#000000">Should EU&#45;wide referenda be implemented?</text>
</g>
<!-- cz_koho_7&#45;&gt;de_1 -->
<g id="edge87" class="edge">
<title>cz_koho_7:e&#45;&gt;de_1:w</title>
<path fill="none" stroke="#000000" d="M952,-1486C952,-1486 1170,-1750 1170,-1750"/>
</g>
<!-- cz_koho_9 -->
<g id="node10" class="node">
<title>cz_koho_9</title>
<polygon fill="none" stroke="#000000" points="952,-1416 16,-1416 16,-1380 952,-1380 952,-1416"/>
<text text-anchor="end" x="944" y="-1394.3" font-family="Roboto" font-size="14.00" fill="#000000">Should the EU have its own army?</text>
</g>
<!-- cz_koho_8&#45;&gt;cz_koho_9 -->
<!-- de_19 -->
<g id="node61" class="node">
<title>de_19</title>
<polygon fill="none" stroke="#000000" points="2106,-976 1170,-976 1170,-940 2106,-940 2106,-976"/>
<text text-anchor="start" x="1178" y="-954.3" font-family="Roboto" font-size="14.00" fill="#000000">Should those EU member states that violate the press and media freedom be punished with financial sanctions?</text>
</g>
<!-- cz_koho_8&#45;&gt;de_19 -->
<g id="edge88" class="edge">
<title>cz_koho_8:e&#45;&gt;de_19:w</title>
<path fill="none" stroke="#000000" d="M952,-1442C952,-1442 1170,-958 1170,-958"/>
</g>
<!-- cz_koho_10 -->
<g id="node11" class="node">
<title>cz_koho_10</title>
<polygon fill="none" stroke="#000000" points="952,-1372 16,-1372 16,-1336 952,-1336 952,-1372"/>
<text text-anchor="end" x="944" y="-1350.3" font-family="Roboto" font-size="14.00" fill="#000000">Should the EU increase the resources for international aid?</text>
</g>
<!-- cz_koho_9&#45;&gt;cz_koho_10 -->
<!-- de_3 -->
<g id="node45" class="node">
<title>de_3</title>
<polygon fill="none" stroke="#000000" points="2106,-1680 1170,-1680 1170,-1644 2106,-1644 2106,-1680"/>
<text text-anchor="start" x="1178" y="-1658.3" font-family="Roboto" font-size="14.00" fill="#000000">Should the EU member states build a joint army?</text>
</g>
<!-- cz_koho_9&#45;&gt;de_3 -->
<g id="edge89" class="edge">
<title>cz_koho_9:e&#45;&gt;de_3:w</title>
<path fill="none" stroke="#000000" d="M952,-1398C952,-1398 1170,-1662 1170,-1662"/>
</g>
<!-- cz_koho_11 -->
<g id="node12" class="node">
<title>cz_koho_11</title>
<polygon fill="none" stroke="#000000" points="952,-1328 16,-1328 16,-1292 952,-1292 952,-1328"/>
<text text-anchor="end" x="944" y="-1306.3" font-family="Roboto" font-size="14.00" fill="#000000">Should asylum applicants be distributed proportionally among the whole EU?</text>
</g>
<!-- cz_koho_10&#45;&gt;cz_koho_11 -->
<!-- de_11 -->
<g id="node53" class="node">
<title>de_11</title>
<polygon fill="none" stroke="#000000" points="2106,-1328 1170,-1328 1170,-1292 2106,-1292 2106,-1328"/>
<text text-anchor="start" x="1178" y="-1306.3" font-family="Roboto" font-size="14.00" fill="#000000">Should the EU provide more money for development aid?</text>
</g>
<!-- cz_koho_10&#45;&gt;de_11 -->
<g id="edge90" class="edge">
<title>cz_koho_10:e&#45;&gt;de_11:w</title>
<path fill="none" stroke="#000000" d="M952,-1354C952,-1354 1170,-1310 1170,-1310"/>
</g>
<!-- cz_koho_12 -->
<g id="node13" class="node">
<title>cz_koho_12</title>
<polygon fill="none" stroke="#000000" points="952,-1284 16,-1284 16,-1248 952,-1248 952,-1284"/>
<text text-anchor="end" x="944" y="-1262.3" font-family="Roboto" font-size="14.00" fill="#000000">Should the EU reduce its sanctions against Russia?</text>
</g>
<!-- cz_koho_11&#45;&gt;cz_koho_12 -->
<!-- de_34 -->
<g id="node76" class="node">
<title>de_34</title>
<polygon fill="none" stroke="#000000" points="2106,-316 1170,-316 1170,-280 2106,-280 2106,-316"/>
<text text-anchor="start" x="1178" y="-294.3" font-family="Roboto" font-size="14.00" fill="#000000">Should people seeking asylum in the EU be proportionally distributed among all EU member states?</text>
</g>
<!-- cz_koho_11&#45;&gt;de_34 -->
<g id="edge91" class="edge">
<title>cz_koho_11:e&#45;&gt;de_34:w</title>
<path fill="none" stroke="#000000" d="M952,-1310C952,-1310 1170,-298 1170,-298"/>
</g>
<!-- cz_koho_13 -->
<g id="node14" class="node">
<title>cz_koho_13</title>
<polygon fill="none" stroke="#000000" points="952,-1240 16,-1240 16,-1204 952,-1204 952,-1240"/>
<text text-anchor="end" x="944" y="-1218.3" font-family="Roboto" font-size="14.00" fill="#000000">Should all asylum applicants who try to cross the Mediterranean sea be brought back?</text>
</g>
<!-- cz_koho_12&#45;&gt;cz_koho_13 -->
<!-- de_30 -->
<g id="node72" class="node">
<title>de_30</title>
<polygon fill="none" stroke="#000000" points="2106,-492 1170,-492 1170,-456 2106,-456 2106,-492"/>
<text text-anchor="start" x="1178" y="-470.3" font-family="Roboto" font-size="14.00" fill="#000000">Should the EU lift its sanctions against Russia?</text>
</g>
<!-- cz_koho_12&#45;&gt;de_30 -->
<g id="edge92" class="edge">
<title>cz_koho_12:e&#45;&gt;de_30:w</title>
<path fill="none" stroke="#000000" d="M952,-1266C952,-1266 1170,-474 1170,-474"/>
</g>
<!-- cz_koho_14 -->
<g id="node15" class="node">
<title>cz_koho_14</title>
<polygon fill="none" stroke="#000000" points="952,-1196 16,-1196 16,-1160 952,-1160 952,-1196"/>
<text text-anchor="end" x="944" y="-1174.3" font-family="Roboto" font-size="14.00" fill="#000000">Should the EU support the member states in legalizing gay and lesbian marriage?</text>
</g>
<!-- cz_koho_13&#45;&gt;cz_koho_14 -->
<!-- de_29 -->
<g id="node71" class="node">
<title>de_29</title>
<polygon fill="none" stroke="#000000" points="2106,-536 1170,-536 1170,-500 2106,-500 2106,-536"/>
<text text-anchor="start" x="1178" y="-514.3" font-family="Roboto" font-size="14.00" fill="#000000">Should all asylum seekers who attempt to arrive to the EU via the Mediterranean sea be brought back to their respective countries of origin?</text>
</g>
<!-- cz_koho_13&#45;&gt;de_29 -->
<g id="edge93" class="edge">
<title>cz_koho_13:e&#45;&gt;de_29:w</title>
<path fill="none" stroke="#000000" d="M952,-1222C952,-1222 1170,-518 1170,-518"/>
</g>
<!-- cz_koho_15 -->
<g id="node16" class="node">
<title>cz_koho_15</title>
<polygon fill="none" stroke="#000000" points="952,-1152 16,-1152 16,-1116 952,-1116 952,-1152"/>
<text text-anchor="end" x="944" y="-1130.3" font-family="Roboto" font-size="14.00" fill="#000000">Should the EU support implementation of a minimal wage which could be different in each country?</text>
</g>
<!-- cz_koho_14&#45;&gt;cz_koho_15 -->
<!-- de_24 -->
<g id="node66" class="node">
<title>de_24</title>
<polygon fill="none" stroke="#000000" points="2106,-756 1170,-756 1170,-720 2106,-720 2106,-756"/>
<text text-anchor="start" x="1178" y="-734.3" font-family="Roboto" font-size="14.00" fill="#000000">Should the EU support implementation of same&#45;sax marriage in all EU member states?</text>
</g>
<!-- cz_koho_14&#45;&gt;de_24 -->
<g id="edge94" class="edge">
<title>cz_koho_14:e&#45;&gt;de_24:w</title>
<path fill="none" stroke="#000000" d="M952,-1178C952,-1178 1170,-738 1170,-738"/>
</g>
<!-- cz_koho_16 -->
<g id="node17" class="node">
<title>cz_koho_16</title>
<polygon fill="none" stroke="#000000" points="952,-1108 16,-1108 16,-1072 952,-1072 952,-1108"/>
<text text-anchor="end" x="944" y="-1086.3" font-family="Roboto" font-size="14.00" fill="#000000">Should it be harder for the citizens of other EU member states to get social support?</text>
</g>
<!-- cz_koho_15&#45;&gt;cz_koho_16 -->
<!-- de_13 -->
<g id="node55" class="node">
<title>de_13</title>
<polygon fill="none" stroke="#000000" points="2106,-1240 1170,-1240 1170,-1204 2106,-1204 2106,-1240"/>
<text text-anchor="start" x="1178" y="-1218.3" font-family="Roboto" font-size="14.00" fill="#000000">Should the EU support implementation of a minimum wage in each member state?</text>
</g>
<!-- cz_koho_15&#45;&gt;de_13 -->
<g id="edge95" class="edge">
<title>cz_koho_15:e&#45;&gt;de_13:w</title>
<path fill="none" stroke="#000000" d="M952,-1134C952,-1134 1170,-1222 1170,-1222"/>
</g>
<!-- cz_koho_17 -->
<g id="node18" class="node">
<title>cz_koho_17</title>
<polygon fill="none" stroke="#000000" points="952,-1064 16,-1064 16,-1028 952,-1028 952,-1064"/>
<text text-anchor="end" x="944" y="-1042.3" font-family="Roboto" font-size="14.00" fill="#000000">Should the citizens of the EU have the possibility to also vote for EU&#45;wide super&#45;national political parties in the European Parliament election?</text>
</g>
<!-- cz_koho_16&#45;&gt;cz_koho_17 -->
<!-- de_9 -->
<g id="node51" class="node">
<title>de_9</title>
<polygon fill="none" stroke="#000000" points="2106,-1416 1170,-1416 1170,-1380 2106,-1380 2106,-1416"/>
<text text-anchor="start" x="1178" y="-1394.3" font-family="Roboto" font-size="14.00" fill="#000000">Should EU citizens who move to another member state receive limited social services?</text>
</g>
<!-- cz_koho_16&#45;&gt;de_9 -->
<g id="edge96" class="edge">
<title>cz_koho_16:e&#45;&gt;de_9:w</title>
<path fill="none" stroke="#000000" d="M952,-1090C952,-1090 1170,-1398 1170,-1398"/>
</g>
<!-- cz_koho_18 -->
<g id="node19" class="node">
<title>cz_koho_18</title>
<polygon fill="#d3d3d3" stroke="#000000" points="952,-1020 16,-1020 16,-984 952,-984 952,-1020"/>
<text text-anchor="end" x="944" y="-998.3" font-family="Roboto" font-size="14.00" fill="#000000">Should the European Parliament have the right to initiate laws without the need to approach the European Commission?</text>
</g>
<!-- cz_koho_17&#45;&gt;cz_koho_18 -->
<!-- de_10 -->
<g id="node52" class="node">
<title>de_10</title>
<polygon fill="none" stroke="#000000" points="2106,-1372 1170,-1372 1170,-1336 2106,-1336 2106,-1372"/>
<text text-anchor="start" x="1178" y="-1350.3" font-family="Roboto" font-size="14.00" fill="#000000">Should EU citizens be allowed to vote for candidates of other member states in the election to the EU parliament?</text>
</g>
<!-- cz_koho_17&#45;&gt;de_10 -->
<g id="edge97" class="edge">
<title>cz_koho_17:e&#45;&gt;de_10:w</title>
<path fill="none" stroke="#000000" d="M952,-1046C952,-1046 1170,-1354 1170,-1354"/>
</g>
<!-- cz_koho_19 -->
<g id="node20" class="node">
<title>cz_koho_19</title>
<polygon fill="none" stroke="#000000" points="952,-976 16,-976 16,-940 952,-940 952,-976"/>
<text text-anchor="end" x="944" y="-954.3" font-family="Roboto" font-size="14.00" fill="#000000">Should the EU member states be prohibited from subsidizing nuclear power?</text>
</g>
<!-- cz_koho_18&#45;&gt;cz_koho_19 -->
<!-- cz_koho_20 -->
<g id="node21" class="node">
<title>cz_koho_20</title>
<polygon fill="#d3d3d3" stroke="#000000" points="952,-932 16,-932 16,-896 952,-896 952,-932"/>
<text text-anchor="end" x="944" y="-910.3" font-family="Roboto" font-size="14.00" fill="#000000">Should tariffs on agricultural products from developing countries be reduced?</text>
</g>
<!-- cz_koho_19&#45;&gt;cz_koho_20 -->
<!-- de_17 -->
<g id="node59" class="node">
<title>de_17</title>
<polygon fill="none" stroke="#000000" points="2106,-1064 1170,-1064 1170,-1028 2106,-1028 2106,-1064"/>
<text text-anchor="start" x="1178" y="-1042.3" font-family="Roboto" font-size="14.00" fill="#000000">Should nuclear power plants continue to be operated in other EU member states?</text>
</g>
<!-- cz_koho_19&#45;&gt;de_17 -->
<g id="edge98" class="edge">
<title>cz_koho_19:e&#45;&gt;de_17:w</title>
<path fill="none" stroke="#000000" d="M952,-958C952,-958 1170,-1046 1170,-1046"/>
</g>
<!-- cz_koho_21 -->
<g id="node22" class="node">
<title>cz_koho_21</title>
<polygon fill="#d3d3d3" stroke="#000000" points="952,-888 16,-888 16,-852 952,-852 952,-888"/>
<text text-anchor="end" x="944" y="-866.3" font-family="Roboto" font-size="14.00" fill="#000000">Should the chairman of the European Commission be elected in a direct election by the citizens of the EU?</text>
</g>
<!-- cz_koho_20&#45;&gt;cz_koho_21 -->
<!-- cz_koho_22 -->
<g id="node23" class="node">
<title>cz_koho_22</title>
<polygon fill="none" stroke="#000000" points="952,-844 16,-844 16,-808 952,-808 952,-844"/>
<text text-anchor="end" x="944" y="-822.3" font-family="Roboto" font-size="14.00" fill="#000000">Should the EU member states cooperate more on common foreign and security policy?</text>
</g>
<!-- cz_koho_21&#45;&gt;cz_koho_22 -->
<!-- cz_koho_23 -->
<g id="node24" class="node">
<title>cz_koho_23</title>
<polygon fill="#d3d3d3" stroke="#000000" points="952,-800 16,-800 16,-764 952,-764 952,-800"/>
<text text-anchor="end" x="944" y="-778.3" font-family="Roboto" font-size="14.00" fill="#000000">Should the EU stop accession of more countries to the EU?</text>
</g>
<!-- cz_koho_22&#45;&gt;cz_koho_23 -->
<!-- de_33 -->
<g id="node75" class="node">
<title>de_33</title>
<polygon fill="none" stroke="#000000" points="2106,-360 1170,-360 1170,-324 2106,-324 2106,-360"/>
<text text-anchor="start" x="1178" y="-338.3" font-family="Roboto" font-size="14.00" fill="#000000">Should foreign policy decisions of the EU be more often decided by a majority vote rather than unanimously?</text>
</g>
<!-- cz_koho_22&#45;&gt;de_33 -->
<g id="edge99" class="edge">
<title>cz_koho_22:e&#45;&gt;de_33:w</title>
<path fill="none" stroke="#000000" stroke-dasharray="5,2" d="M952,-826C952,-826 1170,-342 1170,-342"/>
</g>
<!-- cz_koho_24 -->
<g id="node25" class="node">
<title>cz_koho_24</title>
<polygon fill="none" stroke="#000000" points="952,-756 16,-756 16,-720 952,-720 952,-756"/>
<text text-anchor="end" x="944" y="-734.3" font-family="Roboto" font-size="14.00" fill="#000000">Should a common minimal rate for the company income tax be implemented in the whole EU?</text>
</g>
<!-- cz_koho_23&#45;&gt;cz_koho_24 -->
<!-- cz_koho_25 -->
<g id="node26" class="node">
<title>cz_koho_25</title>
<polygon fill="#d3d3d3" stroke="#000000" points="952,-712 16,-712 16,-676 952,-676 952,-712"/>
<text text-anchor="end" x="944" y="-690.3" font-family="Roboto" font-size="14.00" fill="#000000">Should the asylum requirements be the same in all EU member states?</text>
</g>
<!-- cz_koho_24&#45;&gt;cz_koho_25 -->
<!-- de_23 -->
<g id="node65" class="node">
<title>de_23</title>
<polygon fill="none" stroke="#000000" points="2106,-800 1170,-800 1170,-764 2106,-764 2106,-800"/>
<text text-anchor="start" x="1178" y="-778.3" font-family="Roboto" font-size="14.00" fill="#000000">Should there be a minimum rate for the taxation of companies in the EU?</text>
</g>
<!-- cz_koho_24&#45;&gt;de_23 -->
<g id="edge100" class="edge">
<title>cz_koho_24:e&#45;&gt;de_23:w</title>
<path fill="none" stroke="#000000" d="M952,-738C952,-738 1170,-782 1170,-782"/>
</g>
<!-- cz_koho_26 -->
<g id="node27" class="node">
<title>cz_koho_26</title>
<polygon fill="#d3d3d3" stroke="#000000" points="952,-668 16,-668 16,-632 952,-632 952,-668"/>
<text text-anchor="end" x="944" y="-646.3" font-family="Roboto" font-size="14.00" fill="#000000">Should the EU collect european taxes which would replace existing contributions of the member states?</text>
</g>
<!-- cz_koho_25&#45;&gt;cz_koho_26 -->
<!-- cz_koho_27 -->
<g id="node28" class="node">
<title>cz_koho_27</title>
<polygon fill="none" stroke="#000000" points="952,-624 16,-624 16,-588 952,-588 952,-624"/>
<text text-anchor="end" x="944" y="-602.3" font-family="Roboto" font-size="14.00" fill="#000000">Should the EU become a federation?</text>
</g>
<!-- cz_koho_26&#45;&gt;cz_koho_27 -->
<!-- cz_koho_28 -->
<g id="node29" class="node">
<title>cz_koho_28</title>
<polygon fill="#d3d3d3" stroke="#000000" points="952,-580 16,-580 16,-544 952,-544 952,-580"/>
<text text-anchor="end" x="944" y="-558.3" font-family="Roboto" font-size="14.00" fill="#000000">Should the composition of the European Commission match the results of the European Parliament election?</text>
</g>
<!-- cz_koho_27&#45;&gt;cz_koho_28 -->
<!-- de_37 -->
<g id="node79" class="node">
<title>de_37</title>
<polygon fill="none" stroke="#000000" points="2106,-184 1170,-184 1170,-148 2106,-148 2106,-184"/>
<text text-anchor="start" x="1178" y="-162.3" font-family="Roboto" font-size="14.00" fill="#000000">Should the EU evolve into a federation in the long term?</text>
</g>
<!-- cz_koho_27&#45;&gt;de_37 -->
<g id="edge101" class="edge">
<title>cz_koho_27:e&#45;&gt;de_37:w</title>
<path fill="none" stroke="#000000" d="M952,-606C952,-606 1170,-166 1170,-166"/>
</g>
<!-- cz_koho_29 -->
<g id="node30" class="node">
<title>cz_koho_29</title>
<polygon fill="#d3d3d3" stroke="#000000" points="952,-536 16,-536 16,-500 952,-500 952,-536"/>
<text text-anchor="end" x="944" y="-514.3" font-family="Roboto" font-size="14.00" fill="#000000">Should there be more money given to the Erasmus program?</text>
</g>
<!-- cz_koho_28&#45;&gt;cz_koho_29 -->
<!-- cz_koho_30 -->
<g id="node31" class="node">
<title>cz_koho_30</title>
<polygon fill="#d3d3d3" stroke="#000000" points="952,-492 16,-492 16,-456 952,-456 952,-492"/>
<text text-anchor="end" x="944" y="-470.3" font-family="Roboto" font-size="14.00" fill="#000000">Should the value&#45;added tax rates be unified in the whole EU?</text>
</g>
<!-- cz_koho_29&#45;&gt;cz_koho_30 -->
<!-- cz_koho_31 -->
<g id="node32" class="node">
<title>cz_koho_31</title>
<polygon fill="#d3d3d3" stroke="#000000" points="952,-448 16,-448 16,-412 952,-412 952,-448"/>
<text text-anchor="end" x="944" y="-426.3" font-family="Roboto" font-size="14.00" fill="#000000">Should the EU stop setting detailed regulation on food [e.g. food labelling regulation]?</text>
</g>
<!-- cz_koho_30&#45;&gt;cz_koho_31 -->
<!-- cz_koho_32 -->
<g id="node33" class="node">
<title>cz_koho_32</title>
<polygon fill="#d3d3d3" stroke="#000000" points="952,-404 16,-404 16,-368 952,-368 952,-404"/>
<text text-anchor="end" x="944" y="-382.3" font-family="Roboto" font-size="14.00" fill="#000000">Should the duration of copyright in the EU be shortened?</text>
</g>
<!-- cz_koho_31&#45;&gt;cz_koho_32 -->
<!-- cz_koho_33 -->
<g id="node34" class="node">
<title>cz_koho_33</title>
<polygon fill="#d3d3d3" stroke="#000000" points="952,-360 16,-360 16,-324 952,-324 952,-360"/>
<text text-anchor="end" x="944" y="-338.3" font-family="Roboto" font-size="14.00" fill="#000000">Should the EU member states have the possibility to restrict employment of citizens of other EU member states?</text>
</g>
<!-- cz_koho_32&#45;&gt;cz_koho_33 -->
<!-- cz_koho_34 -->
<g id="node35" class="node">
<title>cz_koho_34</title>
<polygon fill="#d3d3d3" stroke="#000000" points="952,-316 16,-316 16,-280 952,-280 952,-316"/>
<text text-anchor="end" x="944" y="-294.3" font-family="Roboto" font-size="14.00" fill="#000000">Should agricultural subsidies be reduced?</text>
</g>
<!-- cz_koho_33&#45;&gt;cz_koho_34 -->
<!-- cz_koho_35 -->
<g id="node36" class="node">
<title>cz_koho_35</title>
<polygon fill="#d3d3d3" stroke="#000000" points="952,-272 16,-272 16,-236 952,-236 952,-272"/>
<text text-anchor="end" x="944" y="-250.3" font-family="Roboto" font-size="14.00" fill="#000000">Should the air transport and other means of transport be taxed equally?</text>
</g>
<!-- cz_koho_34&#45;&gt;cz_koho_35 -->
<!-- cz_koho_36 -->
<g id="node37" class="node">
<title>cz_koho_36</title>
<polygon fill="#d3d3d3" stroke="#000000" points="952,-228 16,-228 16,-192 952,-192 952,-228"/>
<text text-anchor="end" x="944" y="-206.3" font-family="Roboto" font-size="14.00" fill="#000000">Should international companies pay their income tax in the country where the income was actually created?</text>
</g>
<!-- cz_koho_35&#45;&gt;cz_koho_36 -->
<!-- cz_koho_37 -->
<g id="node38" class="node">
<title>cz_koho_37</title>
<polygon fill="#d3d3d3" stroke="#000000" points="952,-184 16,-184 16,-148 952,-148 952,-184"/>
<text text-anchor="end" x="944" y="-162.3" font-family="Roboto" font-size="14.00" fill="#000000">Should subsidies to large agricultural companies be reduced?</text>
</g>
<!-- cz_koho_36&#45;&gt;cz_koho_37 -->
<!-- cz_koho_38 -->
<g id="node39" class="node">
<title>cz_koho_38</title>
<polygon fill="#d3d3d3" stroke="#000000" points="952,-140 16,-140 16,-104 952,-104 952,-140"/>
<text text-anchor="end" x="944" y="-118.3" font-family="Roboto" font-size="14.00" fill="#000000">Should dual quality of food be prohibited?</text>
</g>
<!-- cz_koho_37&#45;&gt;cz_koho_38 -->
<!-- cz_koho_39 -->
<g id="node40" class="node">
<title>cz_koho_39</title>
<polygon fill="#d3d3d3" stroke="#000000" points="952,-96 16,-96 16,-60 952,-60 952,-96"/>
<text text-anchor="end" x="944" y="-74.3" font-family="Roboto" font-size="14.00" fill="#000000">Should the data protection regulation (GDPR) be revoked?</text>
</g>
<!-- cz_koho_38&#45;&gt;cz_koho_39 -->
<!-- cz_koho_40 -->
<g id="node41" class="node">
<title>cz_koho_40</title>
<polygon fill="none" stroke="#000000" points="952,-52 16,-52 16,-16 952,-16 952,-52"/>
<text text-anchor="end" x="944" y="-30.3" font-family="Roboto" font-size="14.00" fill="#000000">Should the Czech Republic leave the EU?</text>
</g>
<!-- cz_koho_39&#45;&gt;cz_koho_40 -->
<!-- de_16 -->
<g id="node58" class="node">
<title>de_16</title>
<polygon fill="none" stroke="#000000" points="2106,-1108 1170,-1108 1170,-1072 2106,-1072 2106,-1108"/>
<text text-anchor="start" x="1178" y="-1086.3" font-family="Roboto" font-size="14.00" fill="#000000">Should Germany leave the EU?</text>
</g>
<!-- cz_koho_40&#45;&gt;de_16 -->
<g id="edge102" class="edge">
<title>cz_koho_40:e&#45;&gt;de_16:w</title>
<path fill="none" stroke="#000000" d="M952,-34C952,-34 1170,-1090 1170,-1090"/>
</g>
<!-- label1 -->
<g id="node42" class="node">
<title>label1</title>
<text text-anchor="middle" x="1638" y="-1798.3" font-family="Roboto" font-size="14.00" fill="#000000">Germany &#45; Wahl&#45;O&#45;Mat</text>
</g>
<!-- label1&#45;&gt;de_1 -->
<!-- de_1&#45;&gt;de_2 -->
<!-- de_2&#45;&gt;de_3 -->
<!-- de_4 -->
<g id="node46" class="node">
<title>de_4</title>
<polygon fill="#d3d3d3" stroke="#000000" points="2106,-1636 1170,-1636 1170,-1600 2106,-1600 2106,-1636"/>
<text text-anchor="start" x="1178" y="-1614.3" font-family="Roboto" font-size="14.00" fill="#000000">Should the EU support mainly organic farming?</text>
</g>
<!-- de_3&#45;&gt;de_4 -->
<!-- de_4&#45;&gt;de_5 -->
<!-- de_6 -->
<g id="node48" class="node">
<title>de_6</title>
<polygon fill="#d3d3d3" stroke="#000000" points="2106,-1548 1170,-1548 1170,-1512 2106,-1512 2106,-1548"/>
<text text-anchor="start" x="1178" y="-1526.3" font-family="Roboto" font-size="14.00" fill="#000000">Should the EU support private rescue initiatives in the Mediterranean sea?</text>
</g>
<!-- de_5&#45;&gt;de_6 -->
<!-- de_6&#45;&gt;de_7 -->
<!-- de_7&#45;&gt;de_8 -->
<!-- de_8&#45;&gt;de_9 -->
<!-- de_9&#45;&gt;de_10 -->
<!-- de_10&#45;&gt;de_11 -->
<!-- de_12 -->
<g id="node54" class="node">
<title>de_12</title>
<polygon fill="#d3d3d3" stroke="#000000" points="2106,-1284 1170,-1284 1170,-1248 2106,-1248 2106,-1284"/>
<text text-anchor="start" x="1178" y="-1262.3" font-family="Roboto" font-size="14.00" fill="#000000">Should the EU member states continue storing data on flight passengers?</text>
</g>
<!-- de_11&#45;&gt;de_12 -->
<!-- de_12&#45;&gt;de_13 -->
<!-- de_14 -->
<g id="node56" class="node">
<title>de_14</title>
<polygon fill="#d3d3d3" stroke="#000000" points="2106,-1196 1170,-1196 1170,-1160 2106,-1160 2106,-1196"/>
<text text-anchor="start" x="1178" y="-1174.3" font-family="Roboto" font-size="14.00" fill="#000000">Should the EU hold on to the refugee agreement with Turkey?</text>
</g>
<!-- de_13&#45;&gt;de_14 -->
<!-- de_15 -->
<g id="node57" class="node">
<title>de_15</title>
<polygon fill="#d3d3d3" stroke="#000000" points="2106,-1152 1170,-1152 1170,-1116 2106,-1116 2106,-1152"/>
<text text-anchor="start" x="1178" y="-1130.3" font-family="Roboto" font-size="14.00" fill="#000000">Should there be a mandatory women&#39;s quota for supervisory boards of companies in the EU?</text>
</g>
<!-- de_14&#45;&gt;de_15 -->
<!-- de_15&#45;&gt;de_16 -->
<!-- de_16&#45;&gt;de_17 -->
<!-- de_18 -->
<g id="node60" class="node">
<title>de_18</title>
<polygon fill="#d3d3d3" stroke="#000000" points="2106,-1020 1170,-1020 1170,-984 2106,-984 2106,-1020"/>
<text text-anchor="start" x="1178" y="-998.3" font-family="Roboto" font-size="14.00" fill="#000000">Should the EU support immigration of skilled employees from non&#45;EU countries?</text>
</g>
<!-- de_17&#45;&gt;de_18 -->
<!-- de_18&#45;&gt;de_19 -->
<!-- de_19&#45;&gt;de_20 -->
<!-- de_21 -->
<g id="node63" class="node">
<title>de_21</title>
<polygon fill="#d3d3d3" stroke="#000000" points="2106,-888 1170,-888 1170,-852 2106,-852 2106,-888"/>
<text text-anchor="start" x="1178" y="-866.3" font-family="Roboto" font-size="14.00" fill="#000000">Should animal testing in medical research continue to be allowed?</text>
</g>
<!-- de_20&#45;&gt;de_21 -->
<!-- de_22 -->
<g id="node64" class="node">
<title>de_22</title>
<polygon fill="#d3d3d3" stroke="#000000" points="2106,-844 1170,-844 1170,-808 2106,-808 2106,-844"/>
<text text-anchor="start" x="1178" y="-822.3" font-family="Roboto" font-size="14.00" fill="#000000">Should the competences of Europol, the European police agency, be extended?</text>
</g>
<!-- de_21&#45;&gt;de_22 -->
<!-- de_22&#45;&gt;de_23 -->
<!-- de_23&#45;&gt;de_24 -->
<!-- de_24&#45;&gt;de_25 -->
<!-- de_26 -->
<g id="node68" class="node">
<title>de_26</title>
<polygon fill="#d3d3d3" stroke="#000000" points="2106,-668 1170,-668 1170,-632 2106,-632 2106,-668"/>
<text text-anchor="start" x="1178" y="-646.3" font-family="Roboto" font-size="14.00" fill="#000000">Should a highway toll for trucks be implemented in all EU member states?</text>
</g>
<!-- de_25&#45;&gt;de_26 -->
<!-- de_27 -->
<g id="node69" class="node">
<title>de_27</title>
<polygon fill="#d3d3d3" stroke="#000000" points="2106,-624 1170,-624 1170,-588 2106,-588 2106,-624"/>
<text text-anchor="start" x="1178" y="-602.3" font-family="Roboto" font-size="14.00" fill="#000000">Should the EU consider itself a Christian community?</text>
</g>
<!-- de_26&#45;&gt;de_27 -->
<!-- de_28 -->
<g id="node70" class="node">
<title>de_28</title>
<polygon fill="#d3d3d3" stroke="#000000" points="2106,-580 1170,-580 1170,-544 2106,-544 2106,-580"/>
<text text-anchor="start" x="1178" y="-558.3" font-family="Roboto" font-size="14.00" fill="#000000">Should all banks be nationalized?</text>
</g>
<!-- de_27&#45;&gt;de_28 -->
<!-- de_28&#45;&gt;de_29 -->
<!-- de_29&#45;&gt;de_30 -->
<!-- de_31 -->
<g id="node73" class="node">
<title>de_31</title>
<polygon fill="#d3d3d3" stroke="#000000" points="2106,-448 1170,-448 1170,-412 2106,-412 2106,-448"/>
<text text-anchor="start" x="1178" y="-426.3" font-family="Roboto" font-size="14.00" fill="#000000">Should plastic packaging be taxed in all EU member states?</text>
</g>
<!-- de_30&#45;&gt;de_31 -->
<!-- de_32 -->
<g id="node74" class="node">
<title>de_32</title>
<polygon fill="#d3d3d3" stroke="#000000" points="2106,-404 1170,-404 1170,-368 2106,-368 2106,-404"/>
<text text-anchor="start" x="1178" y="-382.3" font-family="Roboto" font-size="14.00" fill="#000000">Should initiatives against antisemitism be financially supported in the EU?</text>
</g>
<!-- de_31&#45;&gt;de_32 -->
<!-- de_32&#45;&gt;de_33 -->
<!-- de_33&#45;&gt;de_34 -->
<!-- de_35 -->
<g id="node77" class="node">
<title>de_35</title>
<polygon fill="#d3d3d3" stroke="#000000" points="2106,-272 1170,-272 1170,-236 2106,-236 2106,-272"/>
<text text-anchor="start" x="1178" y="-250.3" font-family="Roboto" font-size="14.00" fill="#000000">Should the limits on the amount of catch of the European fishing industry be strengthened?</text>
</g>
<!-- de_34&#45;&gt;de_35 -->
<!-- de_36 -->
<g id="node78" class="node">
<title>de_36</title>
<polygon fill="#d3d3d3" stroke="#000000" points="2106,-228 1170,-228 1170,-192 2106,-192 2106,-228"/>
<text text-anchor="start" x="1178" y="-206.3" font-family="Roboto" font-size="14.00" fill="#000000">Should there again be border controls between EU member states?</text>
</g>
<!-- de_35&#45;&gt;de_36 -->
<!-- de_36&#45;&gt;de_37 -->
<!-- de_38 -->
<g id="node80" class="node">
<title>de_38</title>
<polygon fill="#d3d3d3" stroke="#000000" points="2106,-140 1170,-140 1170,-104 2106,-104 2106,-140"/>
<text text-anchor="start" x="1178" y="-118.3" font-family="Roboto" font-size="14.00" fill="#000000">Should people over the age of 16 be allowed to vote in the European Parliament election?</text>
</g>
<!-- de_37&#45;&gt;de_38 -->
<!-- de_38_invis_0 -->
<!-- de_38&#45;&gt;de_38_invis_0 -->
<!-- de_38_invis_1 -->
<!-- de_38_invis_0&#45;&gt;de_38_invis_1 -->
</g>
</svg>
