<?xml version="1.0" encoding="UTF-8" standalone="no"?>
<!DOCTYPE svg PUBLIC "-//W3C//DTD SVG 1.1//EN"
 "http://www.w3.org/Graphics/SVG/1.1/DTD/svg11.dtd">
<!-- Generated by graphviz version 2.40.1 (0)
 -->
<!-- Title: G Pages: 1 -->
<svg width="2128pt" height="1579pt"
 viewBox="0.00 0.00 2128.00 1579.00" xmlns="http://www.w3.org/2000/svg" xmlns:xlink="http://www.w3.org/1999/xlink">
<g id="graph0" class="graph" transform="scale(1 1) rotate(0) translate(4 1575)">
<title>G</title>
<polygon fill="#ffffff" stroke="transparent" points="-4,4 -4,-1575 2124,-1575 2124,4 -4,4"/>
<g id="clust1" class="cluster">
<title>cluster0</title>
<polygon fill="none" stroke="transparent" points="8,-928 8,-1563 960,-1563 960,-928 8,-928"/>
<text text-anchor="middle" x="484" y="-1547.8" font-family="Roboto" font-size="14.00" fill="#000000">Czech</text>
</g>
<g id="clust2" class="cluster">
<title>cluster1</title>
<polygon fill="none" stroke="transparent" points="1160,-8 1160,-1563 2112,-1563 2112,-8 1160,-8"/>
<text text-anchor="middle" x="1636" y="-1547.8" font-family="Roboto" font-size="14.00" fill="#000000">German</text>
</g>
<!-- cz1 -->
<g id="node1" class="node">
<title>cz1</title>
<polygon fill="#d3d3d3" stroke="#000000" points="952,-1532 16,-1532 16,-1496 952,-1496 952,-1532"/>
<text text-anchor="end" x="944" y="-1510.3" font-family="Roboto" font-size="14.00" fill="#000000">Should the EU prevent different quality of food of the same brand in different EU member states?</text>
</g>
<!-- de1 -->
<g id="node16" class="node">
<title>de1</title>
<polygon fill="#d3d3d3" stroke="#000000" points="2104,-1532 1168,-1532 1168,-1496 2104,-1496 2104,-1532"/>
<text text-anchor="start" x="1176" y="-1510.3" font-family="Roboto" font-size="14.00" fill="#000000">Should EU&#45;wide referenda be implemented?</text>
</g>
<!-- cz1&#45;&gt;de1 -->
<!-- cz2 -->
<g id="node2" class="node">
<title>cz2</title>
<polygon fill="none" stroke="#000000" points="952,-1452 16,-1452 16,-1416 952,-1416 952,-1452"/>
<text text-anchor="end" x="944" y="-1430.3" font-family="Roboto" font-size="14.00" fill="#000000">Should legal migration (e.g. labour migration or tourism) policies be decided on the EU&#45;level?</text>
</g>
<!-- de14 -->
<g id="node29" class="node">
<title>de14</title>
<polygon fill="none" stroke="#000000" points="2104,-1492 1168,-1492 1168,-1456 2104,-1456 2104,-1492"/>
<text text-anchor="start" x="1176" y="-1470.3" font-family="Roboto" font-size="14.00" fill="#000000">Should the EU hold on to the refugee agreement with Turkey?</text>
</g>
<!-- cz2&#45;&gt;de14 -->
<g id="edge2" class="edge">
<title>cz2:e&#45;&gt;de14:w</title>
<path fill="none" stroke="#000000" stroke-dasharray="5,2" d="M952,-1434C952,-1434 1168,-1474 1168,-1474"/>
</g>
<!-- de18 -->
<g id="node33" class="node">
<title>de18</title>
<polygon fill="none" stroke="#000000" points="2104,-1452 1168,-1452 1168,-1416 2104,-1416 2104,-1452"/>
<text text-anchor="start" x="1176" y="-1430.3" font-family="Roboto" font-size="14.00" fill="#000000">Should the EU support immigration of skilled employees from non&#45;EU countries?</text>
</g>
<!-- cz2&#45;&gt;de18 -->
<g id="edge3" class="edge">
<title>cz2:e&#45;&gt;de18:w</title>
<path fill="none" stroke="#000000" stroke-dasharray="5,2" d="M952,-1434C952,-1434 1168,-1434 1168,-1434"/>
</g>
<!-- de29 -->
<g id="node44" class="node">
<title>de29</title>
<polygon fill="none" stroke="#000000" points="2104,-1372 1168,-1372 1168,-1336 2104,-1336 2104,-1372"/>
<text text-anchor="start" x="1176" y="-1350.3" font-family="Roboto" font-size="14.00" fill="#000000">Should all asylum seekers who attempt to arrive to the EU via the Mediterranean sea be brought back to their respective countries of origin?</text>
</g>
<!-- cz2&#45;&gt;de29 -->
<g id="edge4" class="edge">
<title>cz2:e&#45;&gt;de29:w</title>
<path fill="none" stroke="#000000" stroke-dasharray="5,2" d="M952,-1434C952,-1434 1168,-1354 1168,-1354"/>
</g>
<!-- cz3 -->
<g id="node3" class="node">
<title>cz3</title>
<polygon fill="none" stroke="#000000" points="952,-1412 16,-1412 16,-1376 952,-1376 952,-1412"/>
<text text-anchor="end" x="944" y="-1390.3" font-family="Roboto" font-size="14.00" fill="#000000">Should there be common EU migration policies?</text>
</g>
<!-- cz3&#45;&gt;de14 -->
<g id="edge5" class="edge">
<title>cz3:e&#45;&gt;de14:w</title>
<path fill="none" stroke="#000000" stroke-dasharray="5,2" d="M952,-1394C952,-1394 1168,-1474 1168,-1474"/>
</g>
<!-- cz3&#45;&gt;de18 -->
<g id="edge6" class="edge">
<title>cz3:e&#45;&gt;de18:w</title>
<path fill="none" stroke="#000000" stroke-dasharray="5,2" d="M952,-1394C952,-1394 1168,-1434 1168,-1434"/>
</g>
<!-- cz3&#45;&gt;de29 -->
<g id="edge7" class="edge">
<title>cz3:e&#45;&gt;de29:w</title>
<path fill="none" stroke="#000000" stroke-dasharray="5,2" d="M952,-1394C952,-1394 1168,-1354 1168,-1354"/>
</g>
<!-- cz4 -->
<g id="node4" class="node">
<title>cz4</title>
<polygon fill="none" stroke="#000000" points="952,-1492 16,-1492 16,-1456 952,-1456 952,-1492"/>
<text text-anchor="end" x="944" y="-1470.3" font-family="Roboto" font-size="14.00" fill="#000000">Should the EU member states deal with the protection of the external border of the EU together?</text>
</g>
<!-- cz4&#45;&gt;de14 -->
<g id="edge8" class="edge">
<title>cz4:e&#45;&gt;de14:w</title>
<path fill="none" stroke="#000000" stroke-dasharray="5,2" d="M952,-1474C952,-1474 1168,-1474 1168,-1474"/>
</g>
<!-- cz4&#45;&gt;de18 -->
<g id="edge9" class="edge">
<title>cz4:e&#45;&gt;de18:w</title>
<path fill="none" stroke="#000000" stroke-dasharray="5,2" d="M952,-1474C952,-1474 1168,-1434 1168,-1434"/>
</g>
<!-- cz4&#45;&gt;de29 -->
<g id="edge10" class="edge">
<title>cz4:e&#45;&gt;de29:w</title>
<path fill="none" stroke="#000000" stroke-dasharray="5,2" d="M952,-1474C952,-1474 1168,-1354 1168,-1354"/>
</g>
<!-- cz5 -->
<g id="node5" class="node">
<title>cz5</title>
<polygon fill="none" stroke="#000000" points="952,-1372 16,-1372 16,-1336 952,-1336 952,-1372"/>
<text text-anchor="end" x="944" y="-1350.3" font-family="Roboto" font-size="14.00" fill="#000000">Should the EU member states create a joint army?</text>
</g>
<!-- de3 -->
<g id="node18" class="node">
<title>de3</title>
<polygon fill="none" stroke="#000000" points="2104,-1292 1168,-1292 1168,-1256 2104,-1256 2104,-1292"/>
<text text-anchor="start" x="1176" y="-1270.3" font-family="Roboto" font-size="14.00" fill="#000000">Should the EU member states build a joint army?</text>
</g>
<!-- cz5&#45;&gt;de3 -->
<g id="edge11" class="edge">
<title>cz5:e&#45;&gt;de3:w</title>
<path fill="none" stroke="#000000" d="M952,-1354C952,-1354 1168,-1274 1168,-1274"/>
</g>
<!-- cz6 -->
<g id="node6" class="node">
<title>cz6</title>
<polygon fill="none" stroke="#000000" points="952,-1332 16,-1332 16,-1296 952,-1296 952,-1332"/>
<text text-anchor="end" x="944" y="-1310.3" font-family="Roboto" font-size="14.00" fill="#000000">Should the EU reinstate internal borders for the movement of people while keeping free movement of goods, services, data and capital?</text>
</g>
<!-- de36 -->
<g id="node51" class="node">
<title>de36</title>
<polygon fill="none" stroke="#000000" points="2104,-1212 1168,-1212 1168,-1176 2104,-1176 2104,-1212"/>
<text text-anchor="start" x="1176" y="-1190.3" font-family="Roboto" font-size="14.00" fill="#000000">Should there again be border controls between EU member states?</text>
</g>
<!-- cz6&#45;&gt;de36 -->
<g id="edge12" class="edge">
<title>cz6:e&#45;&gt;de36:w</title>
<path fill="none" stroke="#000000" d="M952,-1314C952,-1314 1168,-1194 1168,-1194"/>
</g>
<!-- cz7 -->
<g id="node7" class="node">
<title>cz7</title>
<polygon fill="none" stroke="#000000" points="952,-1292 16,-1292 16,-1256 952,-1256 952,-1292"/>
<text text-anchor="end" x="944" y="-1270.3" font-family="Roboto" font-size="14.00" fill="#000000">Should the EU become a federation?</text>
</g>
<!-- de37 -->
<g id="node52" class="node">
<title>de37</title>
<polygon fill="none" stroke="#000000" points="2104,-1052 1168,-1052 1168,-1016 2104,-1016 2104,-1052"/>
<text text-anchor="start" x="1176" y="-1030.3" font-family="Roboto" font-size="14.00" fill="#000000">Should the EU evolve into a federation in long&#45;term?</text>
</g>
<!-- cz7&#45;&gt;de37 -->
<g id="edge13" class="edge">
<title>cz7:e&#45;&gt;de37:w</title>
<path fill="none" stroke="#000000" d="M952,-1274C952,-1274 1168,-1034 1168,-1034"/>
</g>
<!-- cz8 -->
<g id="node8" class="node">
<title>cz8</title>
<polygon fill="none" stroke="#000000" points="952,-1252 16,-1252 16,-1216 952,-1216 952,-1252"/>
<text text-anchor="end" x="944" y="-1230.3" font-family="Roboto" font-size="14.00" fill="#000000">Should the EU have a unified foreign policy?</text>
</g>
<!-- de33 -->
<g id="node48" class="node">
<title>de33</title>
<polygon fill="none" stroke="#000000" points="2104,-1012 1168,-1012 1168,-976 2104,-976 2104,-1012"/>
<text text-anchor="start" x="1176" y="-990.3" font-family="Roboto" font-size="14.00" fill="#000000">Should the foreign policy decisions of the EU be more often decided by a majority vote rather than unanimously?</text>
</g>
<!-- cz8&#45;&gt;de33 -->
<g id="edge14" class="edge">
<title>cz8:e&#45;&gt;de33:w</title>
<path fill="none" stroke="#000000" d="M952,-1234C952,-1234 1168,-994 1168,-994"/>
</g>
<!-- cz9 -->
<g id="node9" class="node">
<title>cz9</title>
<polygon fill="none" stroke="#000000" points="952,-1212 16,-1212 16,-1176 952,-1176 952,-1212"/>
<text text-anchor="end" x="944" y="-1190.3" font-family="Roboto" font-size="14.00" fill="#000000">Should the EU interfere with the social policies [of the EU member states]?</text>
</g>
<!-- de9 -->
<g id="node24" class="node">
<title>de9</title>
<polygon fill="none" stroke="#000000" points="2104,-932 1168,-932 1168,-896 2104,-896 2104,-932"/>
<text text-anchor="start" x="1176" y="-910.3" font-family="Roboto" font-size="14.00" fill="#000000">Should EU citizens who move to another member state receive limited social services there?</text>
</g>
<!-- cz9&#45;&gt;de9 -->
<g id="edge15" class="edge">
<title>cz9:e&#45;&gt;de9:w</title>
<path fill="none" stroke="#000000" stroke-dasharray="5,2" d="M952,-1194C952,-1194 1168,-914 1168,-914"/>
</g>
<!-- cz10 -->
<g id="node10" class="node">
<title>cz10</title>
<polygon fill="#d3d3d3" stroke="#000000" points="952,-1172 16,-1172 16,-1136 952,-1136 952,-1172"/>
<text text-anchor="end" x="944" y="-1150.3" font-family="Roboto" font-size="14.00" fill="#000000">Should the EU limit subsidies for large and profitable companies?</text>
</g>
<!-- cz11 -->
<g id="node11" class="node">
<title>cz11</title>
<polygon fill="none" stroke="#000000" points="952,-1132 16,-1132 16,-1096 952,-1096 952,-1132"/>
<text text-anchor="end" x="944" y="-1110.3" font-family="Roboto" font-size="14.00" fill="#000000">Should there be a minimum wage in the whole EU?</text>
</g>
<!-- de13 -->
<g id="node28" class="node">
<title>de13</title>
<polygon fill="none" stroke="#000000" points="2104,-852 1168,-852 1168,-816 2104,-816 2104,-852"/>
<text text-anchor="start" x="1176" y="-830.3" font-family="Roboto" font-size="14.00" fill="#000000">Should the EU support implementation of a minimum wage in each member state?</text>
</g>
<!-- cz11&#45;&gt;de13 -->
<g id="edge16" class="edge">
<title>cz11:e&#45;&gt;de13:w</title>
<path fill="none" stroke="#000000" d="M952,-1114C952,-1114 1168,-834 1168,-834"/>
</g>
<!-- cz12 -->
<g id="node12" class="node">
<title>cz12</title>
<polygon fill="none" stroke="#000000" points="952,-1092 16,-1092 16,-1056 952,-1056 952,-1092"/>
<text text-anchor="end" x="944" y="-1070.3" font-family="Roboto" font-size="14.00" fill="#000000">Should EU implement any EU&#45;wide tax (e.g. corporate tax)?</text>
</g>
<!-- de7 -->
<g id="node22" class="node">
<title>de7</title>
<polygon fill="none" stroke="#000000" points="2104,-412 1168,-412 1168,-376 2104,-376 2104,-412"/>
<text text-anchor="start" x="1176" y="-390.3" font-family="Roboto" font-size="14.00" fill="#000000">Should the taxes on finance products (e.g. shares) be raised?</text>
</g>
<!-- cz12&#45;&gt;de7 -->
<g id="edge17" class="edge">
<title>cz12:e&#45;&gt;de7:w</title>
<path fill="none" stroke="#000000" stroke-dasharray="5,2" d="M952,-1074C952,-1074 1168,-394 1168,-394"/>
</g>
<!-- cz13 -->
<g id="node13" class="node">
<title>cz13</title>
<polygon fill="none" stroke="#000000" points="952,-1052 16,-1052 16,-1016 952,-1016 952,-1052"/>
<text text-anchor="end" x="944" y="-1030.3" font-family="Roboto" font-size="14.00" fill="#000000">Should the EU deal with ecology?</text>
</g>
<!-- de2 -->
<g id="node17" class="node">
<title>de2</title>
<polygon fill="none" stroke="#000000" points="2104,-332 1168,-332 1168,-296 2104,-296 2104,-332"/>
<text text-anchor="start" x="1176" y="-310.3" font-family="Roboto" font-size="14.00" fill="#000000">Should the EU set higher goals for the reduction of carbon emissions?</text>
</g>
<!-- cz13&#45;&gt;de2 -->
<g id="edge18" class="edge">
<title>cz13:e&#45;&gt;de2:w</title>
<path fill="none" stroke="#000000" stroke-dasharray="5,2" d="M952,-1034C952,-1034 1168,-314 1168,-314"/>
</g>
<!-- de31 -->
<g id="node46" class="node">
<title>de31</title>
<polygon fill="none" stroke="#000000" points="2104,-252 1168,-252 1168,-216 2104,-216 2104,-252"/>
<text text-anchor="start" x="1176" y="-230.3" font-family="Roboto" font-size="14.00" fill="#000000">Should plastic packaging be taxed in all EU member states?</text>
</g>
<!-- cz13&#45;&gt;de31 -->
<g id="edge19" class="edge">
<title>cz13:e&#45;&gt;de31:w</title>
<path fill="none" stroke="#000000" stroke-dasharray="5,2" d="M952,-1034C952,-1034 1168,-234 1168,-234"/>
</g>
<!-- cz14 -->
<g id="node14" class="node">
<title>cz14</title>
<polygon fill="none" stroke="#000000" points="952,-1012 16,-1012 16,-976 952,-976 952,-1012"/>
<text text-anchor="end" x="944" y="-990.3" font-family="Roboto" font-size="14.00" fill="#000000">Should the Czech Republic adopt Euro?</text>
</g>
<!-- de5 -->
<g id="node20" class="node">
<title>de5</title>
<polygon fill="none" stroke="#000000" points="2104,-132 1168,-132 1168,-96 2104,-96 2104,-132"/>
<text text-anchor="start" x="1176" y="-110.3" font-family="Roboto" font-size="14.00" fill="#000000">Should Germany revert from Euro to a national currency?</text>
</g>
<!-- cz14&#45;&gt;de5 -->
<g id="edge20" class="edge">
<title>cz14:e&#45;&gt;de5:w</title>
<path fill="none" stroke="#000000" d="M952,-994C952,-994 1168,-114 1168,-114"/>
</g>
<!-- cz15 -->
<g id="node15" class="node">
<title>cz15</title>
<polygon fill="none" stroke="#000000" points="952,-972 16,-972 16,-936 952,-936 952,-972"/>
<text text-anchor="end" x="944" y="-950.3" font-family="Roboto" font-size="14.00" fill="#000000">Should the Czech Republic leave the EU?</text>
</g>
<!-- de16 -->
<g id="node31" class="node">
<title>de16</title>
<polygon fill="none" stroke="#000000" points="2104,-92 1168,-92 1168,-56 2104,-56 2104,-92"/>
<text text-anchor="start" x="1176" y="-70.3" font-family="Roboto" font-size="14.00" fill="#000000">Should Germany leave the EU?</text>
</g>
<!-- cz15&#45;&gt;de16 -->
<g id="edge21" class="edge">
<title>cz15:e&#45;&gt;de16:w</title>
<path fill="none" stroke="#000000" d="M952,-954C952,-954 1168,-74 1168,-74"/>
</g>
<!-- de4 -->
<g id="node19" class="node">
<title>de4</title>
<polygon fill="#d3d3d3" stroke="#000000" points="2104,-1412 1168,-1412 1168,-1376 2104,-1376 2104,-1412"/>
<text text-anchor="start" x="1176" y="-1390.3" font-family="Roboto" font-size="14.00" fill="#000000">Should the EU support primarily bio agriculture?</text>
</g>
<!-- de6 -->
<g id="node21" class="node">
<title>de6</title>
<polygon fill="#d3d3d3" stroke="#000000" points="2104,-1332 1168,-1332 1168,-1296 2104,-1296 2104,-1332"/>
<text text-anchor="start" x="1176" y="-1310.3" font-family="Roboto" font-size="14.00" fill="#000000">Should the EU support private rescue initiatives in the Mediterranean sea?</text>
</g>
<!-- de8 -->
<g id="node23" class="node">
<title>de8</title>
<polygon fill="#d3d3d3" stroke="#000000" points="2104,-1252 1168,-1252 1168,-1216 2104,-1216 2104,-1252"/>
<text text-anchor="start" x="1176" y="-1230.3" font-family="Roboto" font-size="14.00" fill="#000000">Should the cultivation of genetically modified plants be allowed in the EU?</text>
</g>
<!-- de10 -->
<g id="node25" class="node">
<title>de10</title>
<polygon fill="#d3d3d3" stroke="#000000" points="2104,-1172 1168,-1172 1168,-1136 2104,-1136 2104,-1172"/>
<text text-anchor="start" x="1176" y="-1150.3" font-family="Roboto" font-size="14.00" fill="#000000">Should EU citizens be allowed to vote for candidates of other member states in the election to the EU parliament?</text>
</g>
<!-- de11 -->
<g id="node26" class="node">
<title>de11</title>
<polygon fill="#d3d3d3" stroke="#000000" points="2104,-1132 1168,-1132 1168,-1096 2104,-1096 2104,-1132"/>
<text text-anchor="start" x="1176" y="-1110.3" font-family="Roboto" font-size="14.00" fill="#000000">Should the EU provide more money for development aid?</text>
</g>
<!-- de12 -->
<g id="node27" class="node">
<title>de12</title>
<polygon fill="#d3d3d3" stroke="#000000" points="2104,-1092 1168,-1092 1168,-1056 2104,-1056 2104,-1092"/>
<text text-anchor="start" x="1176" y="-1070.3" font-family="Roboto" font-size="14.00" fill="#000000">Should the EU member states continue storing data on flight passengers?</text>
</g>
<!-- de15 -->
<g id="node30" class="node">
<title>de15</title>
<polygon fill="#d3d3d3" stroke="#000000" points="2104,-972 1168,-972 1168,-936 2104,-936 2104,-972"/>
<text text-anchor="start" x="1176" y="-950.3" font-family="Roboto" font-size="14.00" fill="#000000">Should there be a mandatory women&#39;s quota for the supervisory boards of companies in the EU?</text>
</g>
<!-- de17 -->
<g id="node32" class="node">
<title>de17</title>
<polygon fill="#d3d3d3" stroke="#000000" points="2104,-892 1168,-892 1168,-856 2104,-856 2104,-892"/>
<text text-anchor="start" x="1176" y="-870.3" font-family="Roboto" font-size="14.00" fill="#000000">Should atomic power plants continue to be operated in other EU member states?</text>
</g>
<!-- de19 -->
<g id="node34" class="node">
<title>de19</title>
<polygon fill="#d3d3d3" stroke="#000000" points="2104,-812 1168,-812 1168,-776 2104,-776 2104,-812"/>
<text text-anchor="start" x="1176" y="-790.3" font-family="Roboto" font-size="14.00" fill="#000000">Should those EU member states that violate the press and media freedom be punished with financial sanctions?</text>
</g>
<!-- de20 -->
<g id="node35" class="node">
<title>de20</title>
<polygon fill="#d3d3d3" stroke="#000000" points="2104,-772 1168,-772 1168,-736 2104,-736 2104,-772"/>
<text text-anchor="start" x="1176" y="-750.3" font-family="Roboto" font-size="14.00" fill="#000000">Should the financial support for economically weaker regions of the EU be reduced?</text>
</g>
<!-- de21 -->
<g id="node36" class="node">
<title>de21</title>
<polygon fill="#d3d3d3" stroke="#000000" points="2104,-732 1168,-732 1168,-696 2104,-696 2104,-732"/>
<text text-anchor="start" x="1176" y="-710.3" font-family="Roboto" font-size="14.00" fill="#000000">Should animal testing in medical research continue to be allowed?</text>
</g>
<!-- de22 -->
<g id="node37" class="node">
<title>de22</title>
<polygon fill="#d3d3d3" stroke="#000000" points="2104,-692 1168,-692 1168,-656 2104,-656 2104,-692"/>
<text text-anchor="start" x="1176" y="-670.3" font-family="Roboto" font-size="14.00" fill="#000000">Should the competences of the european police agency Europol be extended?</text>
</g>
<!-- de23 -->
<g id="node38" class="node">
<title>de23</title>
<polygon fill="#d3d3d3" stroke="#000000" points="2104,-652 1168,-652 1168,-616 2104,-616 2104,-652"/>
<text text-anchor="start" x="1176" y="-630.3" font-family="Roboto" font-size="14.00" fill="#000000">Should there be a minimum rate for corporate tax in the EU?</text>
</g>
<!-- de24 -->
<g id="node39" class="node">
<title>de24</title>
<polygon fill="#d3d3d3" stroke="#000000" points="2104,-612 1168,-612 1168,-576 2104,-576 2104,-612"/>
<text text-anchor="start" x="1176" y="-590.3" font-family="Roboto" font-size="14.00" fill="#000000">Should the EU support implementation of same&#45;sax marriage in all EU member states?</text>
</g>
<!-- de25 -->
<g id="node40" class="node">
<title>de25</title>
<polygon fill="#d3d3d3" stroke="#000000" points="2104,-572 1168,-572 1168,-536 2104,-536 2104,-572"/>
<text text-anchor="start" x="1176" y="-550.3" font-family="Roboto" font-size="14.00" fill="#000000">Should those EU member states that violate the EU rules for excess of the national debt be punished?</text>
</g>
<!-- de26 -->
<g id="node41" class="node">
<title>de26</title>
<polygon fill="#d3d3d3" stroke="#000000" points="2104,-532 1168,-532 1168,-496 2104,-496 2104,-532"/>
<text text-anchor="start" x="1176" y="-510.3" font-family="Roboto" font-size="14.00" fill="#000000">Should a highway toll for trucks be implemented in all EU member states?</text>
</g>
<!-- de27 -->
<g id="node42" class="node">
<title>de27</title>
<polygon fill="#d3d3d3" stroke="#000000" points="2104,-492 1168,-492 1168,-456 2104,-456 2104,-492"/>
<text text-anchor="start" x="1176" y="-470.3" font-family="Roboto" font-size="14.00" fill="#000000">Should the EU consider itself a Christian community?</text>
</g>
<!-- de28 -->
<g id="node43" class="node">
<title>de28</title>
<polygon fill="#d3d3d3" stroke="#000000" points="2104,-452 1168,-452 1168,-416 2104,-416 2104,-452"/>
<text text-anchor="start" x="1176" y="-430.3" font-family="Roboto" font-size="14.00" fill="#000000">Should all banks be nationalized?</text>
</g>
<!-- de30 -->
<g id="node45" class="node">
<title>de30</title>
<polygon fill="#d3d3d3" stroke="#000000" points="2104,-372 1168,-372 1168,-336 2104,-336 2104,-372"/>
<text text-anchor="start" x="1176" y="-350.3" font-family="Roboto" font-size="14.00" fill="#000000">Should the EU lift its sanctions against Russia?</text>
</g>
<!-- de32 -->
<g id="node47" class="node">
<title>de32</title>
<polygon fill="#d3d3d3" stroke="#000000" points="2104,-292 1168,-292 1168,-256 2104,-256 2104,-292"/>
<text text-anchor="start" x="1176" y="-270.3" font-family="Roboto" font-size="14.00" fill="#000000">Should initiatives against antisemitismus be financially supported in the EU?</text>
</g>
<!-- de34 -->
<g id="node49" class="node">
<title>de34</title>
<polygon fill="#d3d3d3" stroke="#000000" points="2104,-212 1168,-212 1168,-176 2104,-176 2104,-212"/>
<text text-anchor="start" x="1176" y="-190.3" font-family="Roboto" font-size="14.00" fill="#000000">Should people seeking asylum in the EU be proportionally distributed in all EU member states?</text>
</g>
<!-- de35 -->
<g id="node50" class="node">
<title>de35</title>
<polygon fill="#d3d3d3" stroke="#000000" points="2104,-172 1168,-172 1168,-136 2104,-136 2104,-172"/>
<text text-anchor="start" x="1176" y="-150.3" font-family="Roboto" font-size="14.00" fill="#000000">Should the limits on the amount of catch of the European fishing industry be strengthened?</text>
</g>
<!-- de38 -->
<g id="node53" class="node">
<title>de38</title>
<polygon fill="#d3d3d3" stroke="#000000" points="2104,-52 1168,-52 1168,-16 2104,-16 2104,-52"/>
<text text-anchor="start" x="1176" y="-30.3" font-family="Roboto" font-size="14.00" fill="#000000">Should people over the age of 16 be allowed to vote in the election to the EU parliament?</text>
</g>
</g>
</svg>
